<mxfile modified="2023-02-23T06:24:59.988Z" host="app.diagrams.net" agent="5.0 (X11)" etag="i5L6WLr7d19FNeQq1jOC" version="20.8.23" type="github">
  <diagram id="C2fSY1v2SiZeoUbDoYyL" name="Page-1">
    <mxGraphModel dx="1560" dy="838" grid="1" gridSize="10" guides="1" tooltips="1" connect="1" arrows="1" fold="1" page="1" pageScale="1" pageWidth="1169" pageHeight="827" math="0" shadow="0">
      <root>
        <mxCell id="0" />
        <mxCell id="1" parent="0" />
        <mxCell id="3ne1QswCM8ZiEu4GHsYG-19" style="orthogonalLoop=1;jettySize=auto;html=1;curved=1;sourcePerimeterSpacing=5;targetPerimeterSpacing=5;exitX=1;exitY=0.5;exitDx=0;exitDy=0;entryX=0;entryY=0;entryDx=0;entryDy=0;" parent="1" source="LyEzB0Ulu9DqEIwb4BtE-29" target="LyEzB0Ulu9DqEIwb4BtE-22" edge="1">
          <mxGeometry relative="1" as="geometry">
            <mxPoint x="318" y="526" as="sourcePoint" />
          </mxGeometry>
        </mxCell>
        <mxCell id="3ne1QswCM8ZiEu4GHsYG-5" value="Sorting" style="shape=image;verticalLabelPosition=bottom;verticalAlign=top;aspect=fixed;image=data:image/svg+xml,PHN2ZyB4bWxucz0iaHR0cDovL3d3dy53My5vcmcvMjAwMC9zdmciIHhtbG5zOnhsaW5rPSJodHRwOi8vd3d3LnczLm9yZy8xOTk5L3hsaW5rIiB2ZXJzaW9uPSIxLjEiIGlkPSJMYXllcl8xIiB4PSIwcHgiIHk9IjBweCIgd2lkdGg9IjQ4cHgiIGhlaWdodD0iNDhweCIgdmlld0JveD0iMCAwIDQ4IDQ4IiBlbmFibGUtYmFja2dyb3VuZD0ibmV3IDAgMCA0OCA0OCIgeG1sOnNwYWNlPSJwcmVzZXJ2ZSI+JiN4YTs8ZyBpZD0iY29sb3JfMjlfIj4mI3hhOwk8Zz4mI3hhOwkJPHBhdGggZmlsbD0iI0ZGREE4RSIgZD0iTTQ1LjQzOCwxNy4wOTZsMC4wMDMtMC4wMDdsLTE5LTlsLTAuMDAzLDAuMDA3Yy0wLjEzLTAuMDYzLTAuMjcyLTAuMTA0LTAuNDI3LTAuMTA0ICAgIHMtMC4yOTcsMC4wNDEtMC40MjcsMC4xMDRsLTAuMDAzLTAuMDA3bC0xOSw5bDAuMDAzLDAuMDA3Yy0wLjMzNiwwLjE2MS0wLjU3MywwLjQ5OS0wLjU3MywwLjg5NnYxNyAgICBjMCwwLjM5NywwLjIzNywwLjczNSwwLjU3MywwLjg5NmwtMC4wMDMsMC4wMDdsMjAsMTBsMC4wMDMtMC4wMDdjMC4xMywwLjA2MywwLjI3MiwwLjEwNCwwLjQyNywwLjEwNHMwLjI5Ny0wLjA0MSwwLjQyNy0wLjEwNCAgICBsMC4wMDMsMC4wMDdsMTgtOS4wMDFsLTAuMDAzLTAuMDA2YzAuMzM3LTAuMTYxLDAuNTczLTAuNDk5LDAuNTczLTAuODk2di0xOEM0Ni4wMTEsMTcuNTk1LDQ1Ljc3NSwxNy4yNTcsNDUuNDM4LDE3LjA5NnoiLz4mI3hhOwk8L2c+JiN4YTs8L2c+JiN4YTs8ZyBpZD0ib3V0bGluZV8yOF8iPiYjeGE7CTxnPiYjeGE7CQk8cGF0aCBmaWxsPSIjMzg0RDY4IiBkPSJNMy43MTMsMTAuNjczTDYuNTcsNy41MjFjNC43MzYtNC43MzUsOS43MDctNC43MjEsMTQuNDI4LDBsMi42MTEsMi40NzRsLTQuNTk4LTAuMDAyICAgIGMtMC41MzQtMC4wMDEtMS4wMDEsMC40NzUtMSwxczAuNDY2LDAuOTk5LDEsMWw3LjAyMSwwLjAwM2MwLjUzNSwwLjAwMiwwLjk4LTAuNDc4LDAuOTc5LTEuMDAzdi03Yy0wLjAwMi0wLjUyNS0wLjQ2Ni0wLjk5OS0xLTEgICAgcy0xLjAwMiwwLjQ3NS0xLDFsLTAuMDE2LDQuNzEzbC0yLjU3LTIuNTg5Yy01LjUwNS01LjUwNS0xMS44MzItNS40NTMtMTcuMjg0LDBMMi4yODUsOS4yNjljLTAuMzk1LDAuMzg4LTAuMzk1LDEuMDE3LDAsMS40MDQgICAgUzMuMzE5LDExLjA2MSwzLjcxMywxMC42NzN6IE00NS45NDEsMTUuNjQ2Yy0wLjAxMi0wLjAzNC0wLjAyOC0wLjA2My0wLjA0NS0wLjA5NmMtMC4wMzctMC4wNzQtMC4wODItMC4xNDEtMC4xMzUtMC4yMDIgICAgYy0wLjAyNC0wLjAyNy0wLjA0NS0wLjA1Ny0wLjA3Mi0wLjA4MmMtMC4wNzQtMC4wNjktMC4xNTYtMC4xMjktMC4yNDktMC4xNzRsMC4wMDEtMC4wMDNMMzAuNDM1LDguMDk0ICAgIGMtMC4xMy0wLjA2Mi0wLjI3MS0wLjEwMi0wLjQyNC0wLjEwMmMtMC41NTMsMC0xLDAuNDQ3LTEsMWMwLDAuNzI1LDAuODg2LDEuMDY2LDAuNzk4LDEuMDA1bC0wLjE3My0wLjA4ICAgIGMwLjExMiwwLjA0NSwwLjE1NSwwLjA2NywwLjE3MywwLjA4bDEyLjg3Niw1Ljk5NWwtMTIuNTE3LDUuOTYxbC01LjE1Ny0yLjU3OXYtNC4zODJjMC0wLjU1My0wLjQ0Ny0xLTEtMWMtMC41NTIsMC0xLDAuNDQ3LTEsMSAgICB2NC4zODJsLTUuMTU3LDIuNTc5TDUuMzM3LDE1Ljk5M2w4Ljk4OC00LjA2M2MwLjM5Ni0wLjEzMywwLjY4Ni0wLjQ5NSwwLjY4Ni0wLjkzN2MwLTAuNTUzLTAuNDQ4LTEtMS0xICAgIGMtMC4yNDEsMC0wLjM0MSwwLjA0Ni0wLjM0MSwwLjA0NkwyLjU4MiwxNS4wODlsMC4wMDEsMC4wMDNjLTAuMDkzLDAuMDQ1LTAuMTc1LDAuMTA0LTAuMjUsMC4xNzQgICAgYy0wLjAyNywwLjAyNS0wLjA0NywwLjA1NS0wLjA3MSwwLjA4MmMtMC4wNTMsMC4wNjItMC4wOTksMC4xMjgtMC4xMzYsMC4yMDJjLTAuMDE2LDAuMDMyLTAuMDMyLDAuMDYyLTAuMDQ1LDAuMDk2ICAgIGMtMC4wNDEsMC4xMDktMC4wNywwLjIyNC0wLjA3LDAuMzQ3djE5YzAsMC4zOTgsMC4yMzQsMC43MzksMC41NzEsMC45bC0wLjAwMSwwLjAwM2wyMSwxMGwwLjAwMS0wLjAwMyAgICBjMC4xMywwLjA2MiwwLjI3NCwwLjEsMC40MjksMC4xczAuMjk5LTAuMDM4LDAuNDI5LTAuMWwwLjAwMSwwLjAwM2wyMS0xMGwtMC4wMDEtMC4wMDNjMC4zMzctMC4xNjEsMC41NzEtMC41MDIsMC41NzEtMC45di0xOSAgICBDNDYuMDExLDE1Ljg3LDQ1Ljk4MiwxNS43NTUsNDUuOTQxLDE1LjY0NnogTTIzLjAxMSw0My40MDlsLTE5LTkuMDQ4VjE3LjU3N2wxOSw5LjA0OFY0My40MDl6IE0yNC4wMTEsMjQuODg1bC0zLjg2Ni0xLjg0MiAgICBsMy44NjYtMS45MzNsMy44NjYsMS45MzNMMjQuMDExLDI0Ljg4NXogTTQ0LjAxMSwzNC4zNjFsLTE5LDkuMDQ4VjI2LjYyNWwxOS05LjA0OFYzNC4zNjF6Ii8+JiN4YTsJPC9nPiYjeGE7PC9nPiYjeGE7PC9zdmc+;movable=1;resizable=1;rotatable=1;deletable=1;editable=1;locked=0;connectable=1;" parent="1" vertex="1">
          <mxGeometry x="960" y="580.0500000000003" width="48" height="48" as="geometry" />
        </mxCell>
        <mxCell id="3ne1QswCM8ZiEu4GHsYG-25" style="orthogonalLoop=1;jettySize=auto;html=1;curved=1;sourcePerimeterSpacing=5;targetPerimeterSpacing=5;" parent="1" source="3ne1QswCM8ZiEu4GHsYG-6" target="3ne1QswCM8ZiEu4GHsYG-15" edge="1">
          <mxGeometry relative="1" as="geometry">
            <Array as="points">
              <mxPoint x="934.5" y="439" />
            </Array>
          </mxGeometry>
        </mxCell>
        <mxCell id="3ne1QswCM8ZiEu4GHsYG-6" value="Land&#xa;Transport" style="shape=image;verticalLabelPosition=bottom;verticalAlign=top;aspect=fixed;image=data:image/svg+xml,PHN2ZyB4bWxucz0iaHR0cDovL3d3dy53My5vcmcvMjAwMC9zdmciIHhtbG5zOnhsaW5rPSJodHRwOi8vd3d3LnczLm9yZy8xOTk5L3hsaW5rIiB2ZXJzaW9uPSIxLjEiIGlkPSJMYXllcl8xIiB4PSIwcHgiIHk9IjBweCIgd2lkdGg9IjQ4cHgiIGhlaWdodD0iNDhweCIgdmlld0JveD0iMCAwIDQ4IDQ4IiBlbmFibGUtYmFja2dyb3VuZD0ibmV3IDAgMCA0OCA0OCIgeG1sOnNwYWNlPSJwcmVzZXJ2ZSI+JiN4YTs8ZyBpZD0iY29sb3JfMzNfIj4mI3hhOwk8Zz4mI3hhOwkJPHBhdGggZmlsbD0iI0YxNjM2MiIgZD0iTTQ1LDIzaC01bC00LTEyYzAtMC41NTMtMC40NDctMS0xLTFoLTFoLTVIN2MtMC41NTMsMC0xLDAuNDQ3LTEsMXYyNGMwLDAuNTUzLDAuNDQ3LDEsMSwxaDI3ICAgIGMwLjE4NiwwLDAuMzUxLTAuMDY0LDAuNS0wLjE1M0MzNC42NDksMzUuOTM2LDM0LjgxNCwzNiwzNSwzNmg4YzAuNTUzLDAsMy0yLjQ0NywzLTN2LTlDNDYsMjMuNDQ3LDQ1LjU1MywyMyw0NSwyM3oiLz4mI3hhOwk8L2c+JiN4YTs8L2c+JiN4YTs8ZyBpZD0ib3V0bGluZV8zM18iPiYjeGE7CTxnPiYjeGE7CQk8cGF0aCBmaWxsPSIjMzg0RDY4IiBkPSJNMjEuMjgxLDMxLjM2MmMtMC4zNzUsMC4zNzMtMC4zNzUsMC45NzgsMCwxLjM1MXMwLjk4MiwwLjM3MywxLjM1NywwbDQuMDczLTQuMDUzICAgIGMwLjM3NC0wLjM3MywwLjM3NC0wLjk3OCwwLTEuMzUxbC00LjA3My00LjA1M2MtMC4zNzUtMC4zNzMtMC45ODItMC4zNzMtMS4zNTcsMHMtMC4zNzUsMC45NzgsMCwxLjM1MUwyMy42ODYsMjdIMTYgICAgYy0xLjY1NiwwLTMtMS4zNDMtMy0zdi00YzAtMC41NTMtMC40NDctMS0xLTFzLTEsMC40NDctMSwxdjRjMCwyLjc2MiwyLjIzOCw1LDUsNWg3LjY1NUwyMS4yODEsMzEuMzYyeiBNNDEsMjYgICAgYzAuNTUzLDAsMS0wLjQ0NywxLTFzLTAuNDQ3LTEtMS0xaC0yYy0wLjU1MywwLTEsMC40NDctMSwxczAuNDQ3LDEsMSwxSDQxeiBNMTMsMzVjLTEuNjU2LDAtMywxLjM0My0zLDNzMS4zNDQsMywzLDNzMy0xLjM0MywzLTMgICAgUzE0LjY1NiwzNSwxMywzNXogTTEzLDM5Yy0wLjU1MywwLTEtMC40NDctMS0xczAuNDQ3LTEsMS0xczEsMC40NDcsMSwxUzEzLjU1MywzOSwxMywzOXogTTI4LDM1SDE4Yy0wLjU1MywwLTEsMC40NDctMSwxICAgIHMwLjQ0NywxLDEsMWgxMGMwLjU1MywwLDEtMC40NDcsMS0xUzI4LjU1MywzNSwyOCwzNXogTTQyLDIwaC0yYy0xLjEwNCwwLTItMC44OTYtMi0ybC0yLTdjMC0yLjIwOS0xLjc5MS00LTQtNEgzICAgIEMyLjQ0Nyw3LDIsNy40NDcsMiw4djI4YzAsMC41NTMsMC40NDcsMSwxLDFoNWMwLjU1MywwLDEtMC40NDcsMS0xcy0wLjQ0Ny0xLTEtMUg0VjloMjhjMS4xMDQsMCwyLDAuODk2LDIsMmwyLDcgICAgYzAsMi4yMDksMS43OTEsNCw0LDRoMmMxLjEwNCwwLDIsMC44OTYsMiwydjljMCwxLjEwNC0wLjg5NiwyLTIsMmgtNGMtMC41NTMsMC0xLDAuNDQ3LTEsMXMwLjQ0NywxLDEsMWg0YzIuMjA5LDAsNC0xLjc5MSw0LTR2LTkgICAgQzQ2LDIxLjc5MSw0NC4yMDksMjAsNDIsMjB6IE0zMiwyMmMxLjEwNCwwLDItMC44OTYsMi0ybC0yLTdjMC0xLjEwNC0wLjg5Ni0yLTItMmgtNGMtMS4xMDQsMC0yLDAuODk2LTIsMnY3YzAsMS4xMDQsMC44OTYsMiwyLDIgICAgSDMyeiBNMjYsMTNoNGwyLDdoLTZWMTN6IE0zMywzNWMtMS42NTYsMC0zLDEuMzQzLTMsM3MxLjM0NCwzLDMsM3MzLTEuMzQzLDMtM1MzNC42NTYsMzUsMzMsMzV6IE0zMywzOWMtMC41NTMsMC0xLTAuNDQ3LTEtMSAgICBzMC40NDctMSwxLTFzMSwwLjQ0NywxLDFTMzMuNTUzLDM5LDMzLDM5eiIvPiYjeGE7CTwvZz4mI3hhOzwvZz4mI3hhOzwvc3ZnPg==" parent="1" vertex="1">
          <mxGeometry x="652.5000000000001" y="409" width="48" height="48" as="geometry" />
        </mxCell>
        <mxCell id="3ne1QswCM8ZiEu4GHsYG-27" style="orthogonalLoop=1;jettySize=auto;html=1;curved=1;sourcePerimeterSpacing=5;targetPerimeterSpacing=5;" parent="1" source="3ne1QswCM8ZiEu4GHsYG-7" target="3ne1QswCM8ZiEu4GHsYG-11" edge="1">
          <mxGeometry relative="1" as="geometry">
            <Array as="points">
              <mxPoint x="754.5" y="289" />
            </Array>
          </mxGeometry>
        </mxCell>
        <mxCell id="3ne1QswCM8ZiEu4GHsYG-7" value="Air&#xa;Transport" style="shape=image;verticalLabelPosition=bottom;verticalAlign=top;aspect=fixed;image=data:image/svg+xml,PHN2ZyB4bWxucz0iaHR0cDovL3d3dy53My5vcmcvMjAwMC9zdmciIHhtbG5zOnhsaW5rPSJodHRwOi8vd3d3LnczLm9yZy8xOTk5L3hsaW5rIiB2ZXJzaW9uPSIxLjEiIGlkPSJMYXllcl8xIiB4PSIwcHgiIHk9IjBweCIgd2lkdGg9IjQ4cHgiIGhlaWdodD0iNDhweCIgdmlld0JveD0iMCAwIDQ4IDQ4IiBlbmFibGUtYmFja2dyb3VuZD0ibmV3IDAgMCA0OCA0OCIgeG1sOnNwYWNlPSJwcmVzZXJ2ZSI+JiN4YTs8ZyBpZD0iY29sb3JfMjVfIj4mI3hhOwk8Zz4mI3hhOwkJPHBhdGggZmlsbD0iI0YxNjM2MiIgZD0iTTI3LDQxLjAxOWM5Ljk0MSwwLDE4LTguMDU5LDE4LTE4cy04LjA1OS0xOC0xOC0xOHMtMTgsOC4wNTktMTgsMThTMTcuMDU5LDQxLjAxOSwyNyw0MS4wMTl6ICAgICBNMTQuMDQzLDIzLjA5N2MwLjE2My0wLjE2LDAuMjY1LTAuMTg4LDAuMjY1LTAuMTg4bDIuNTIxLTEuMTMybDAuNDU2LTAuMTA1YzAuMjYxLDAsMC41MjEsMC4wOTgsMC43MiwwLjI5M2wwLjg4NiwwLjYgICAgbDMuMDAxLTIuODc4bC0zLjU5Ny0zLjUzNWMtMC4zOTgtMC4zOTEtMC42NDUtMC43NzYtMC4yNDgtMS4xNjdsMS4xOTEtMS4yNDljMC4zMDktMC4zMDQsMC42NjgtMC4zMzMsMS4wNDQtMC4xNjZsMC4wMDMtMC4wMDcgICAgbDUuMzM2LDIuMzg1bDIuNDk4LTIuMzc3YzAuNjk3LTAuNTk1LDIuMjE4LTEuMTcyLDMuNDEsMHMwLjQ1LDIuNDkzLTAuMDgzLDMuMjUzbC0yLjYsMi41NjFsMi4zOTMsNS4xNzVsLTAuMDA2LDAuMDAzICAgIGMwLjE3LDAuMzY4LDAuMTkyLDAuNzczLTAuMTE3LDEuMDc3bC0xLjEwOSwxLjA4NGMtMC4zOTcsMC4zOTEtMC44NzYsMC4yMjYtMS4yNzQtMC4xNjVsLTMuNTk3LTMuNTM1bC0yLjkyNiwyLjgwMmwwLjU2MywwLjgxMyAgICBjMC4xOTksMC4xOTUsMC4yOTgsMC40NTIsMC4yOTgsMC43MDhjMCwwLjE1My0wLjA0NywwLjMwMi0wLjExOSwwLjQ0MmwtMS4wNjksMi41NTJjMCwwLTAuMDI3LDAuMTAxLTAuMTksMC4yNjEgICAgYy0wLjM5OCwwLjM5MS0xLjA0MiwwLjM5MS0xLjQ0LDBjMCwwLTIuMTctMy41MzMtMi4yNDUtMy42MDZjLTAuMTI3LTAuMTI2LTMuOTY2LTIuNDgxLTMuOTY2LTIuNDgxICAgIEMxMy42NDYsMjQuMTIyLDEzLjY0NiwyMy40ODgsMTQuMDQzLDIzLjA5N3ogTTExLDQyLjAxOUg1Yy0wLjM5MSwwLTAuNzIxLDAuMjMtMC44ODUsMC41NThsLTAuMDA5LTAuMDA1bC0xLDJsMC4wMDksMC4wMDUgICAgQzMuMDQ3LDQ0LjcxMSwzLDQ0Ljg1OCwzLDQ1LjAxOWMwLDAuNTUzLDAuNDQ4LDEsMSwxaDZjMC4zOTEsMCwwLjcyMS0wLjIzLDAuODg1LTAuNTU4bDAuMDA5LDAuMDA1bDEtMmwtMC4wMDktMC4wMDUgICAgQzExLjk1Myw0My4zMjcsMTIsNDMuMTgsMTIsNDMuMDE5QzEyLDQyLjQ2NiwxMS41NTIsNDIuMDE5LDExLDQyLjAxOXogTTIyLDQyLjAxOWgtNmMtMC4zOTEsMC0wLjcyMSwwLjIzLTAuODg1LDAuNTU4ICAgIGwtMC4wMDktMC4wMDVsLTEsMmwwLjAwOSwwLjAwNUMxNC4wNDcsNDQuNzExLDE0LDQ0Ljg1OCwxNCw0NS4wMTljMCwwLjU1MywwLjQ0OCwxLDEsMWg2YzAuMzkxLDAsMC43MjEtMC4yMywwLjg4NS0wLjU1OCAgICBsMC4wMDksMC4wMDVsMS0ybC0wLjAwOS0wLjAwNUMyMi45NTMsNDMuMzI3LDIzLDQzLjE4LDIzLDQzLjAxOUMyMyw0Mi40NjYsMjIuNTUyLDQyLjAxOSwyMiw0Mi4wMTl6IE00NCw0Mi4wMTloLTYgICAgYy0wLjM5MSwwLTAuNzIxLDAuMjMtMC44ODUsMC41NThsLTAuMDA5LTAuMDA1bC0xLDJsMC4wMDksMC4wMDVDMzYuMDQ3LDQ0LjcxMSwzNiw0NC44NTgsMzYsNDUuMDE5YzAsMC41NTMsMC40NDgsMSwxLDFoNiAgICBjMC4zOTEsMCwwLjcyMS0wLjIzLDAuODg1LTAuNTU4bDAuMDA5LDAuMDA1bDEtMmwtMC4wMDktMC4wMDVDNDQuOTUzLDQzLjMyNyw0NSw0My4xOCw0NSw0My4wMTkgICAgQzQ1LDQyLjQ2Niw0NC41NTIsNDIuMDE5LDQ0LDQyLjAxOXogTTMzLDQyLjAxOWgtNmMtMC4zOTEsMC0wLjcyMSwwLjIzLTAuODg1LDAuNTU4bC0wLjAwOS0wLjAwNWwtMSwybDAuMDA5LDAuMDA1ICAgIEMyNS4wNDcsNDQuNzExLDI1LDQ0Ljg1OCwyNSw0NS4wMTljMCwwLjU1MywwLjQ0OCwxLDEsMWg2YzAuMzkxLDAsMC43MjEtMC4yMywwLjg4NS0wLjU1OGwwLjAwOSwwLjAwNWwxLTJsLTAuMDA5LTAuMDA1ICAgIEMzMy45NTMsNDMuMzI3LDM0LDQzLjE4LDM0LDQzLjAxOUMzNCw0Mi40NjYsMzMuNTUyLDQyLjAxOSwzMyw0Mi4wMTl6Ii8+JiN4YTsJPC9nPiYjeGE7PC9nPiYjeGE7PGcgaWQ9Im91dGxpbmVfMjRfIj4mI3hhOwk8Zz4mI3hhOwkJPHBhdGggZmlsbD0iIzM4NEQ2OCIgZD0iTTI0LDEuOTgxYy0xMC41MDIsMC0xOS4wMTYsOC41MTQtMTkuMDE2LDE5LjAxNlMxMy40OTgsNDAuMDEyLDI0LDQwLjAxMnMxOS4wMTYtOC41MTQsMTkuMDE2LTE5LjAxNiAgICBTMzQuNTAyLDEuOTgxLDI0LDEuOTgxeiBNMjQsMzguMDExYy05LjM5NiwwLTE3LjAxNC03LjYxOC0xNy4wMTQtMTcuMDE1UzE0LjYwNCwzLjk4MywyNCwzLjk4M1M0MS4wMTQsMTEuNiw0MS4wMTQsMjAuOTk3ICAgIFMzMy4zOTYsMzguMDExLDI0LDM4LjAxMXogTTMxLjc3OCwxMy4yNDFjLTEuMTcyLTEuMTcyLTMuMDcxLTEuMTcyLTQuMjQzLDBsLTIuMjEyLDIuMjEybC01LjI0NS0yLjM4NGwtMC4wMDMsMC4wMDcgICAgYy0wLjM2OS0wLjE2OC0wLjcyMy0wLjEzOC0xLjAyNiwwLjE2NWwtMS40MTQsMS40MTRjLTAuMzkxLDAuMzkyLTAuMzkxLDEuMDIzLDAsMS40MTRsMy41MzUsMy41MzZsLTIuMzgzLDIuMzgzbC0wLjg3MS0wLjYgICAgYy0wLjE5Ni0wLjE5NS0wLjQ1Mi0wLjI5My0wLjcwOC0wLjI5M2wtMC40NDcsMC4xMDVsLTMuMjA3LDEuNzkyYzAsMC0wLjEsMC4wMjYtMC4yNiwwLjE4OGMtMC4zOTEsMC4zOTEtMC4zOTEsMS4wMjQsMCwxLjQxNSAgICBjMCwwLDQuMDk3LDIuNjg2LDQuMjIyLDIuODExYzAuMDc0LDAuMDczLDIuODU1LDQuMjY3LDIuODU1LDQuMjY3YzAuMzkxLDAuMzkxLDEuMDI0LDAuMzkxLDEuNDE2LDAgICAgYzAuMTYtMC4xNjEsMC4xODgtMC4yNjEsMC4xODgtMC4yNjFsMS43OC0zLjIxMmMwLjA3LTAuMTQxLDAuMTE3LTAuMjg5LDAuMTE3LTAuNDQyYzAtMC4yNTYtMC4wOTgtMC41MTItMC4yOTMtMC43MDcgICAgbC0wLjU1NC0wLjgxM2wyLjM4OS0yLjM5bDMuNTM2LDMuNTM2YzAuMzkxLDAuMzkxLDEuMDIzLDAuMzkxLDEuNDE0LDBsMS40MTUtMS40MTRjMC4zMDMtMC4zMDQsMC4yODItMC43MDksMC4xMTQtMS4wNzcgICAgbDAuMDA2LTAuMDAzbC0yLjM1Mi01LjE3NWwyLjIzMS0yLjIzQzMyLjk1LDE2LjMxMiwzMi45NSwxNC40MTMsMzEuNzc4LDEzLjI0MXogTTE5Ljc1NywxNS4zNjJsMC4xMjUtMC4xODRsMy45ODcsMS43MjkgICAgbC0xLjI4MywxLjI4NEwxOS43NTcsMTUuMzYyeiBNMjkuNzksMjUuMDg1bC0wLjEzMywwLjE3NmwtMi44MjgtMi44MjhsMS4yNzQtMS4yNzRMMjkuNzksMjUuMDg1eiBNMzAuMzY0LDE2LjA2OWwtOS44ODgsOS44ODkgICAgYzAuNzUyLDAuOTk5LDEuMTc4LDEuOTk4LDEuMTc4LDEuOTk4bC0wLjg0OCwxLjE3OWMwLDAtMS45NDQtMi45MzUtMi4wMTMtMy4wMDRjLTAuMTIxLTAuMTIxLTIuOTYtMS45NjktMi45Ni0xLjk2OWwxLjE3OS0wLjg0OCAgICBjMCwwLDEuMDUsMC40NTcsMi4wNTUsMS4yMjRsOS44ODItOS44ODNjMC4zOTEtMC4zOTEsMS4wMjQtMC4zOTEsMS40MTQsMEMzMC43NTQsMTUuMDQ1LDMwLjc1NCwxNS42NzksMzAuMzY0LDE2LjA2OXogTTI0LDUuOTg1ICAgIGMtOC4yOTEsMC0xNS4wMTIsNi43MjEtMTUuMDEyLDE1LjAxMlMxNS43MDksMzYuMDA5LDI0LDM2LjAwOXMxNS4wMTItNi43MjIsMTUuMDEyLTE1LjAxM1MzMi4yOTEsNS45ODUsMjQsNS45ODV6IE0yNCwzNC4wMDcgICAgYy03LjE4NiwwLTEzLjAxMS01LjgyNS0xMy4wMTEtMTMuMDExUzE2LjgxNCw3Ljk4NiwyNCw3Ljk4NnMxMy4wMTEsNS44MjUsMTMuMDExLDEzLjAxMVMzMS4xODYsMzQuMDA3LDI0LDM0LjAwN3oiLz4mI3hhOwk8L2c+JiN4YTs8L2c+JiN4YTs8L3N2Zz4=" parent="1" vertex="1">
          <mxGeometry x="670.0000000000001" y="170" width="48" height="48" as="geometry" />
        </mxCell>
        <mxCell id="3ne1QswCM8ZiEu4GHsYG-21" style="orthogonalLoop=1;jettySize=auto;html=1;curved=1;sourcePerimeterSpacing=5;targetPerimeterSpacing=5;" parent="1" source="3ne1QswCM8ZiEu4GHsYG-8" target="3ne1QswCM8ZiEu4GHsYG-12" edge="1">
          <mxGeometry relative="1" as="geometry">
            <Array as="points">
              <mxPoint x="484.5" y="319" />
            </Array>
          </mxGeometry>
        </mxCell>
        <mxCell id="3ne1QswCM8ZiEu4GHsYG-24" style="orthogonalLoop=1;jettySize=auto;html=1;curved=1;sourcePerimeterSpacing=5;targetPerimeterSpacing=5;" parent="1" source="3ne1QswCM8ZiEu4GHsYG-8" target="3ne1QswCM8ZiEu4GHsYG-6" edge="1">
          <mxGeometry relative="1" as="geometry">
            <Array as="points">
              <mxPoint x="544.5" y="439" />
            </Array>
          </mxGeometry>
        </mxCell>
        <mxCell id="3ne1QswCM8ZiEu4GHsYG-8" value="Loading" style="shape=image;verticalLabelPosition=bottom;verticalAlign=top;aspect=fixed;image=data:image/svg+xml,PHN2ZyB4bWxucz0iaHR0cDovL3d3dy53My5vcmcvMjAwMC9zdmciIHhtbG5zOnhsaW5rPSJodHRwOi8vd3d3LnczLm9yZy8xOTk5L3hsaW5rIiB2ZXJzaW9uPSIxLjEiIGlkPSJMYXllcl8xIiB4PSIwcHgiIHk9IjBweCIgd2lkdGg9IjQ4cHgiIGhlaWdodD0iNDhweCIgdmlld0JveD0iMCAwIDQ4IDQ4IiBlbmFibGUtYmFja2dyb3VuZD0ibmV3IDAgMCA0OCA0OCIgeG1sOnNwYWNlPSJwcmVzZXJ2ZSI+JiN4YTs8ZyBpZD0iY29sb3JfMzVfIj4mI3hhOwk8Zz4mI3hhOwkJPHBhdGggZmlsbD0iIzg5OENDNSIgZD0iTTQ0LjU3MiwyMy40MmwtMy41LTYuMDYzYy0wLjI3Ni0wLjQ3OS0wLjg4OC0wLjY0My0xLjM2Ni0wLjM2NmwtOS41MjYsNS41ICAgIGMtMC40NzksMC4yNzYtMC42NDIsMC44ODgtMC4zNjYsMS4zNjZsMy41LDYuMDYzYzAuMjc2LDAuNDc4LDAuODg4LDAuNjQyLDEuMzY2LDAuMzY1bDkuNTI2LTUuNSAgICBDNDQuNjg1LDI0LjUxLDQ0Ljg0OSwyMy44OTcsNDQuNTcyLDIzLjQyeiBNNDAuMzAzLDM3Ljk5N2MtMi4yMDksMC00LDEuNzkxLTQsNHMxLjc5MSw0LDQsNHM0LTEuNzkxLDQtNCAgICBTNDIuNTEyLDM3Ljk5Nyw0MC4zMDMsMzcuOTk3eiIvPiYjeGE7CTwvZz4mI3hhOzwvZz4mI3hhOzxnIGlkPSJvdXRsaW5lXzM1XyI+JiN4YTsJPGc+JiN4YTsJCTxwYXRoIGZpbGw9IiMzODRENjgiIGQ9Ik0yOS42NzksMzAuMTMxYzAuMjc1LDAuNDc5LDAuODg4LDAuNjQzLDEuMzY1LDAuMzY2bDEwLjM5My02YzAuNDc5LTAuMjc2LDAuNjQzLTAuODg4LDAuMzY2LTEuMzY2ICAgIGwtNC02LjkyOGMtMC4yNzYtMC40NzktMC44ODgtMC42NDMtMS4zNjYtMC4zNjZsLTEwLjM5Myw2Yy0wLjQ3OCwwLjI3Ni0wLjY0MiwwLjg4OC0wLjM2NSwxLjM2NkwyOS42NzksMzAuMTMxeiBNMzEuMzc1LDIxLjA2OCAgICBsMS41LDIuNTk5bDEuNzMxLTFsLTEuNS0yLjU5OWwzLjQ2NC0xLjk5OWwzLDUuMTk1bC04LjY2LDVsLTMtNS4xOTVMMzEuMzc1LDIxLjA2OHogTTQwLjE4NSwyOS40ODYgICAgYy0wLjI3OS0wLjQ4LTAuODk4LTAuNjQ1LTEuMzgzLTAuMzY3bC05LjY0LDUuNTE1TDEwLjQ0LDIuNTA1QzEwLjE2LDIuMDI1LDkuNTQyLDEuODYsOS4wNTksMi4xMzhMMy44LDUuMTQ2ICAgIEMzLjMxNSw1LjQyMywzLjE1LDYuMDM2LDMuNDMsNi41MTZzMC44OTgsMC42NDQsMS4zODIsMC4zNjdsNC4zODItMi41MDdsMTguNzIyLDMyLjEyOWMwLjI3OSwwLjQ3OSwwLjg5OCwwLjY0NCwxLjM4MiwwLjM2NyAgICBsMTAuNTE3LTYuMDE3QzQwLjI5OCwzMC41NzksNDAuNDY0LDI5Ljk2Niw0MC4xODUsMjkuNDg2eiBNMzcuMzAzLDM1Ljk5N2MtMi43NjIsMC01LDIuMjM4LTUsNXMyLjIzOCw1LDUsNXM1LTIuMjM4LDUtNSAgICBTNDAuMDY0LDM1Ljk5NywzNy4zMDMsMzUuOTk3eiBNMzcuMzAzLDQzLjk5N2MtMS42NTcsMC0zLTEuMzQzLTMtM3MxLjM0My0zLDMtM3MzLDEuMzQzLDMsM1MzOC45Niw0My45OTcsMzcuMzAzLDQzLjk5N3oiLz4mI3hhOwk8L2c+JiN4YTs8L2c+JiN4YTs8L3N2Zz4=" parent="1" vertex="1">
          <mxGeometry x="416.5" y="327.00000000000034" width="48" height="48" as="geometry" />
        </mxCell>
        <mxCell id="3ne1QswCM8ZiEu4GHsYG-18" style="orthogonalLoop=1;jettySize=auto;html=1;curved=1;sourcePerimeterSpacing=5;targetPerimeterSpacing=5;entryX=0;entryY=0.5;entryDx=0;entryDy=0;" parent="1" source="3ne1QswCM8ZiEu4GHsYG-9" target="LyEzB0Ulu9DqEIwb4BtE-29" edge="1">
          <mxGeometry relative="1" as="geometry">
            <mxPoint x="270" y="526" as="targetPoint" />
          </mxGeometry>
        </mxCell>
        <mxCell id="3ne1QswCM8ZiEu4GHsYG-9" value="ROM&#xa;读取硬件只读内存" style="shape=image;verticalLabelPosition=bottom;verticalAlign=top;aspect=fixed;image=data:image/svg+xml,PHN2ZyB4bWxucz0iaHR0cDovL3d3dy53My5vcmcvMjAwMC9zdmciIHhtbG5zOnhsaW5rPSJodHRwOi8vd3d3LnczLm9yZy8xOTk5L3hsaW5rIiB2ZXJzaW9uPSIxLjEiIGlkPSJMYXllcl8xIiB4PSIwcHgiIHk9IjBweCIgd2lkdGg9IjQ4cHgiIGhlaWdodD0iNDhweCIgdmlld0JveD0iMCAwIDQ4IDQ4IiBlbmFibGUtYmFja2dyb3VuZD0ibmV3IDAgMCA0OCA0OCIgeG1sOnNwYWNlPSJwcmVzZXJ2ZSI+JiN4YTs8ZyBpZD0iY29sb3JfMzdfIj4mI3hhOwk8Zz4mI3hhOwkJPHBhdGggZmlsbD0iI0ZGREE4RSIgZD0iTTM0LDhMMTMsMThjMCwwLDAsOS4xNDYsMCwxMmMwLDAuMDc2LDAuMDE3LDAuMTQ4LDAuMDQ0LDAuMjE4QzEzLjE0NiwzMC42NjIsMTMuNTI1LDMxLDE0LDMxbDQuMzAzLDEuNzE0ICAgIEMxOC40ODMsMzIuODksMTguNzI5LDMzLDE5LDMzYzAuNTUzLDAsMS0wLjQ0NywxLTFjMC0wLjIsMC0xMCwwLTEwbDIxLTExTDM0LDh6Ii8+JiN4YTsJPC9nPiYjeGE7PC9nPiYjeGE7PGcgaWQ9Im91cmxpbmUiPiYjeGE7CTxnPiYjeGE7CQk8cGF0aCBmaWxsPSIjMzg0RDY4IiBkPSJNNDUuNDI3LDEyLjEwNGwwLjAwMy0wLjAwN2wtMjEtMTBDMjQuNDMsMi4wOTcsMjQuMzEzLDIsMjQsMnMtMC40MywwLjA5Ny0wLjQzLDAuMDk3bC0yMSwxMCAgICBjMCwwLDAuMDAxLDAuMDA0LDAuMDAyLDAuMDA1QzIuNDkzLDEyLjEzNiwyLDEyLjQwNCwyLDEzdjIyYzAsMC4zOTcsMC4yMzYsMC43MzUsMC41NzMsMC44OTZMMi41NywzNS45MDJsMjEsMTBsMC4wMDMtMC4wMDYgICAgQzIzLjcwNCw0NS45NTksMjMuODQ2LDQ2LDI0LDQ2czAuMjk2LTAuMDQxLDAuNDI3LTAuMTA0bDAuMDAzLDAuMDA2bDIxLTEwbC0wLjAwMy0wLjAwNkM0NS43NjQsMzUuNzM1LDQ2LDM1LjM5Nyw0NiwzNVYxMyAgICBDNDYsMTIuNzgxLDQ1Ljg3MiwxMi4zMTYsNDUuNDI3LDEyLjEwNHogTTM1LjAyNCw5LjM1N0wxNSwxOC42OTd2OS44MjZsLTMtMS4yVjE3bDE5LjczNi05LjIwOUwzNS4wMjQsOS4zNTd6IE0yNCw0LjEwNyAgICBsNS4zNzQsMi41NkwxMC43LDE1LjU1OUw1LjMyNiwxM0wyNCw0LjEwN3ogTTIzLDQzLjQxNkw0LDM0LjM2OFYxNC41ODRsNiwyLjg1N1YyOGMwLDAuNDIxLDAuMjYyLDAuNzc3LDAuNjMsMC45MjVsLTAuMDAxLDAuMDA0ICAgIGw0Ljk4MSwxLjk5MkMxNS4zODgsMzAuODI3LDE1Ljc1NSwzMSwxNiwzMWMwLjU1MywwLDEtMC40NDcsMS0xdi05LjIyNmw2LDIuODU3VjQzLjQxNnogTTI0LDIxLjg5M2wtNS40NzUtMi42MDdsMTguODQtOC44MTMgICAgTDQyLjY3NCwxM0wyNCwyMS44OTN6IE00NCwzNC4zNjhsLTE5LDkuMDQ4VjIzLjYzMmwxOS05LjA0OFYzNC4zNjh6Ii8+JiN4YTsJPC9nPiYjeGE7PC9nPiYjeGE7PC9zdmc+" parent="1" vertex="1">
          <mxGeometry x="130" y="589.0500000000002" width="48" height="48" as="geometry" />
        </mxCell>
        <mxCell id="3ne1QswCM8ZiEu4GHsYG-20" style="orthogonalLoop=1;jettySize=auto;html=1;curved=1;sourcePerimeterSpacing=5;targetPerimeterSpacing=5;" parent="1" source="3ne1QswCM8ZiEu4GHsYG-10" target="3ne1QswCM8ZiEu4GHsYG-8" edge="1">
          <mxGeometry relative="1" as="geometry" />
        </mxCell>
        <mxCell id="3ne1QswCM8ZiEu4GHsYG-10" value="Destination&#xa;Search" style="shape=image;verticalLabelPosition=bottom;verticalAlign=top;aspect=fixed;image=data:image/svg+xml,PHN2ZyB4bWxucz0iaHR0cDovL3d3dy53My5vcmcvMjAwMC9zdmciIHhtbG5zOnhsaW5rPSJodHRwOi8vd3d3LnczLm9yZy8xOTk5L3hsaW5rIiB2ZXJzaW9uPSIxLjEiIGlkPSJMYXllcl8xIiB4PSIwcHgiIHk9IjBweCIgd2lkdGg9IjQ4cHgiIGhlaWdodD0iNDhweCIgdmlld0JveD0iMCAwIDQ4IDQ4IiBlbmFibGUtYmFja2dyb3VuZD0ibmV3IDAgMCA0OCA0OCIgeG1sOnNwYWNlPSJwcmVzZXJ2ZSI+JiN4YTs8ZyBpZD0iRWxsaXBzZV82X2NvcHkiPiYjeGE7CTxnPiYjeGE7CQk8cGF0aCBmaWxsPSIjRkZEQThFIiBkPSJNNDMuMTM3LDE1LjcyOEM0MS4wMjEsMTguNTc4LDM4LjUwNiwyMSwzOC41LDIxQzM4LjQ4LDIxLDMxLDEzLjc5NywzMSw5LjYgICAgYzAtMC45OTIsMC4xOTMtMS45MzgsMC41MzUtMi44MDdDMjkuNzc1LDYuMjg3LDI3LjkyMiw2LDI2LDZDMTQuOTU0LDYsNiwxNC45NTQsNiwyNnM4Ljk1NCwyMCwyMCwyMHMyMC04Ljk1NCwyMC0yMCAgICBDNDYsMjIuMjM4LDQ0Ljk0MiwxOC43MzIsNDMuMTM3LDE1LjcyOHoiLz4mI3hhOwk8L2c+JiN4YTs8L2c+JiN4YTs8ZyBpZD0iRWxsaXBzZV82Ij4mI3hhOwk8Zz4mI3hhOwkJPHBhdGggZmlsbD0iIzM4NEQ2OCIgZD0iTTM1LDE0YzIuMjA5LDAsNC0xLjc5MSw0LTRzLTEuNzkxLTQtNC00cy00LDEuNzkxLTQsNFMzMi43OTEsMTQsMzUsMTR6IE0zNSw4YzEuMTA0LDAsMiwwLjg5NiwyLDIgICAgcy0wLjg5NiwyLTIsMnMtMi0wLjg5Ni0yLTJTMzMuODk2LDgsMzUsOHogTTQ0LDE2Yy0wLjE4OC0wLjU4NC0wLjQ0Ny0xLTEtMWMtMS4yMzgsMC0xLjA3OCwxLjAzNS0wLjc3LDEuNjEzICAgIGMwLjcwMSwxLjg3OSwxLjYyOSw0LjQ5MywxLjcyMyw2LjM4N2gtNy4wNjRsLTEuMTc0LDEuMTc1Yy0wLjQwMywwLjQwMy0xLjA1NywwLjQwMy0xLjQ2MSwwTDMzLjA4LDIzSDI1di05YzAuNTUzLDAsMS0wLjQ0NywxLTEgICAgcy0wLjQ0Ny0xLTEtMVY1YzAuNTUzLDAsMS0wLjQ0NywxLTFjMC4xNSwwLjAxOCwwLjg1Mi0wLjAyMSwxLDBjMC41NTMsMCwxLTAuNDQ3LDEtMXMtMC40NDctMS0xLTFoLTNDMTEuODUsMiwyLDExLjg1LDIsMjQgICAgczkuODUsMjIsMjIsMjJzMjItOS44NSwyMi0yMkM0NiwyMS41NDYsNDQuOTk4LDE3LjkyLDQ0LDE2eiBNMjEuNjA0LDQuMTU3QzE4LjM2Niw1Ljk4OSwxNS43OTQsOC43MjYsMTMuOTksMTJIOC4wMDkgICAgQzExLjIwNiw3Ljc1NCwxNi4wNTUsNC44MiwyMS42MDQsNC4xNTd6IE02LjY5OSwxNGg2LjMxM2MtMS4xODYsMi43NjEtMS44NjUsNS44MTktMS45ODMsOUg0LjA0NyAgICBDNC4yMDksMTkuNzI5LDUuMTQ5LDE2LjY3LDYuNjk5LDE0eiBNNC4wNDcsMjVoNi45ODJjMC4xMTksMy4xODEsMC43OTcsNi4yMzksMS45ODMsOUg2LjY5OUM1LjE0OSwzMS4zMyw0LjIwOSwyOC4yNzEsNC4wNDcsMjV6ICAgICBNOC4wMDksMzZoNS45ODFjMS44MDQsMy4yNzQsNC4zNzYsNi4wMTEsNy42MTMsNy44NDNDMTYuMDU1LDQzLjE4LDExLjIwNiw0MC4yNDYsOC4wMDksMzZ6IE0yMyw0Mi41MDkgICAgYy0yLjg0OC0xLjQ4Ny01LjEzMS0zLjc1OS02Ljc5NC02LjUwOUgyM1Y0Mi41MDl6IE0yMywzNGgtNy44NjVjLTEuMjY2LTIuNzM2LTEuOTc5LTUuODE4LTIuMTA1LTlIMjNWMzR6IE0yMywyM2gtOS45NyAgICBjMC4xMjUtMy4xODIsMC44MzktNi4yNjQsMi4xMDUtOUgyM1YyM3ogTTIzLDEyaC02Ljc5NEMxNy44NjksOS4yNSwyMC4xNTIsNi45NzgsMjMsNS40OTFWMTJ6IE0yNSwyNWg5Ljk3ICAgIGMtMC4xMjUsMy4xODItMC44MzksNi4yNjQtMi4xMDQsOUgyNVYyNXogTTI1LDM2aDYuNzk0Yy0xLjY2MywyLjc1LTMuOTQ2LDUuMDIxLTYuNzk0LDYuNTA5VjM2eiBNMjYuMzk2LDQzLjg0MyAgICBjMy4yMzctMS44MzIsNS44MDktNC41NjgsNy42MTMtNy44NDNoNS45OEMzNi43OTQsNDAuMjQ2LDMxLjk0NSw0My4xOCwyNi4zOTYsNDMuODQzeiBNNDEuMzAxLDM0aC02LjMxMyAgICBjMS4xODYtMi43NjEsMS44NjQtNS44MTksMS45ODItOWg2Ljk4MkM0My43OTEsMjguMjcxLDQyLjg1MSwzMS4zMyw0MS4zMDEsMzR6IE0zNSwyMmMwLjAxMiwwLDgtNy41ODIsOC0xMnMtMy41ODItOC04LTggICAgcy04LDMuNTgyLTgsOFMzNC45OCwyMiwzNSwyMnogTTM1LDRjMy4zMTMsMCw2LDIuNjg3LDYsNnMtNS45NjgsOS02LDljLTAuMDAxLDAtNi01LjY4Ny02LTlTMzEuNjg2LDQsMzUsNHoiLz4mI3hhOwk8L2c+JiN4YTs8L2c+JiN4YTs8L3N2Zz4=" parent="1" vertex="1">
          <mxGeometry x="950" y="457.0000000000002" width="48" height="48" as="geometry" />
        </mxCell>
        <mxCell id="3ne1QswCM8ZiEu4GHsYG-28" style="orthogonalLoop=1;jettySize=auto;html=1;curved=1;sourcePerimeterSpacing=5;targetPerimeterSpacing=5;" parent="1" source="3ne1QswCM8ZiEu4GHsYG-11" target="3ne1QswCM8ZiEu4GHsYG-14" edge="1">
          <mxGeometry relative="1" as="geometry" />
        </mxCell>
        <mxCell id="3ne1QswCM8ZiEu4GHsYG-11" value="Arrival to&#xa;airport/port" style="shape=image;verticalLabelPosition=bottom;verticalAlign=top;aspect=fixed;image=data:image/svg+xml,PHN2ZyB4bWxucz0iaHR0cDovL3d3dy53My5vcmcvMjAwMC9zdmciIHhtbG5zOnhsaW5rPSJodHRwOi8vd3d3LnczLm9yZy8xOTk5L3hsaW5rIiB2ZXJzaW9uPSIxLjEiIGlkPSJMYXllcl8xIiB4PSIwcHgiIHk9IjBweCIgd2lkdGg9IjQ4cHgiIGhlaWdodD0iNDhweCIgdmlld0JveD0iMCAwIDQ4IDQ4IiBlbmFibGUtYmFja2dyb3VuZD0ibmV3IDAgMCA0OCA0OCIgeG1sOnNwYWNlPSJwcmVzZXJ2ZSI+JiN4YTs8ZyBpZD0iY29sb3JfMTlfIj4mI3hhOwk8Zz4mI3hhOwkJPGNpcmNsZSBmaWxsPSIjRjE2MzYyIiBjeD0iMjciIGN5PSIxOSIgcj0iMTAiLz4mI3hhOwk8L2c+JiN4YTs8L2c+JiN4YTs8ZyBpZD0ib3V0bGluZV8xOF8iPiYjeGE7CTxnPiYjeGE7CQk8cGF0aCBmaWxsLXJ1bGU9ImV2ZW5vZGQiIGNsaXAtcnVsZT0iZXZlbm9kZCIgZmlsbD0iIzM4NEQ2OCIgZD0iTTI4LjQ0MiwxMy4xMTRsMC4wMDUtMC4wMDlsLTQtMmwtMC4wMDUsMC4wMDkgICAgQzI0LjMwOCwxMS4wNDcsMjQuMTYxLDExLDI0LDExcy0wLjMwOCwwLjA0Ny0wLjQ0MiwwLjExNGwtMC4wMDUtMC4wMDlsLTQsMmwwLjAwNCwwLjAwOUMxOS4yMywxMy4yNzksMTksMTMuNjA5LDE5LDE0djUgICAgYzAsMC4zOTEsMC4yMywwLjcyMSwwLjU1NywwLjg4NmwtMC4wMDQsMC4wMDlsNCwybDAuMDA1LTAuMDA5QzIzLjY5MiwyMS45NTMsMjMuODM5LDIyLDI0LDIyczAuMzA4LTAuMDQ3LDAuNDQyLTAuMTE0ICAgIGwwLjAwNSwwLjAwOWw0LTJsLTAuMDA1LTAuMDA5QzI4Ljc3LDE5LjcyMSwyOSwxOS4zOTEsMjksMTl2LTVDMjksMTMuNjA5LDI4Ljc3LDEzLjI3OSwyOC40NDIsMTMuMTE0eiBNMjMsMTkuMzgybC0yLTF2LTIuNzY0ICAgIGwyLDFWMTkuMzgyeiBNMjQsMTQuODgyTDIyLjIzNiwxNEwyNCwxMy4xMThMMjUuNzY0LDE0TDI0LDE0Ljg4MnogTTI3LDE4LjM4MmwtMiwxdi0yLjc2NGwyLTFWMTguMzgyeiBNMjQsMiAgICBDMTUuNzE2LDIsOSw4LjcxNiw5LDE3YzAsMTMuODkxLDE0LjYyNiwyOSwxNSwyOWMwLjE3NCwwLDE1LTE0Ljk2NiwxNS0yOUMzOSw4LjcxNiwzMi4yODQsMiwyNCwyeiBNMjQsNDMgICAgYy0wLjMyNCwwLTEzLTE0LjA1LTEzLTI2LjA0NkMxMSw5LjgsMTYuODIsNCwyNCw0czEzLDUuOCwxMywxMi45NTRDMzcsMjkuMDc0LDI0LjE1LDQzLDI0LDQzeiBNMjQsNmMtNi4wNzUsMC0xMSw0LjkyNS0xMSwxMSAgICBzNC45MjUsMTEsMTEsMTFzMTEtNC45MjUsMTEtMTFTMzAuMDc1LDYsMjQsNnogTTI0LDI2Yy00Ljk3MSwwLTktNC4wMjktOS05czQuMDI5LTksOS05czksNC4wMjksOSw5UzI4Ljk3MSwyNiwyNCwyNnoiLz4mI3hhOwk8L2c+JiN4YTs8L2c+JiN4YTs8L3N2Zz4=" parent="1" vertex="1">
          <mxGeometry x="772.5" y="327.0000000000003" width="48" height="48" as="geometry" />
        </mxCell>
        <mxCell id="3ne1QswCM8ZiEu4GHsYG-22" style="orthogonalLoop=1;jettySize=auto;html=1;curved=1;sourcePerimeterSpacing=5;targetPerimeterSpacing=5;" parent="1" source="3ne1QswCM8ZiEu4GHsYG-12" target="3ne1QswCM8ZiEu4GHsYG-7" edge="1">
          <mxGeometry relative="1" as="geometry">
            <Array as="points">
              <mxPoint x="604.5" y="270" />
            </Array>
          </mxGeometry>
        </mxCell>
        <mxCell id="3ne1QswCM8ZiEu4GHsYG-23" style="orthogonalLoop=1;jettySize=auto;html=1;curved=1;sourcePerimeterSpacing=5;targetPerimeterSpacing=5;" parent="1" source="3ne1QswCM8ZiEu4GHsYG-12" target="3ne1QswCM8ZiEu4GHsYG-13" edge="1">
          <mxGeometry relative="1" as="geometry">
            <Array as="points">
              <mxPoint x="614.5" y="339" />
            </Array>
          </mxGeometry>
        </mxCell>
        <mxCell id="3ne1QswCM8ZiEu4GHsYG-12" value="Weight&#xa;Station" style="shape=image;verticalLabelPosition=bottom;verticalAlign=top;aspect=fixed;image=data:image/svg+xml,PHN2ZyB4bWxucz0iaHR0cDovL3d3dy53My5vcmcvMjAwMC9zdmciIHhtbG5zOnhsaW5rPSJodHRwOi8vd3d3LnczLm9yZy8xOTk5L3hsaW5rIiB2ZXJzaW9uPSIxLjEiIGlkPSJMYXllcl8xIiB4PSIwcHgiIHk9IjBweCIgd2lkdGg9IjQwcHgiIGhlaWdodD0iNDRweCIgdmlld0JveD0iMCAwIDQwIDQ0IiBlbmFibGUtYmFja2dyb3VuZD0ibmV3IDAgMCA0MCA0NCIgeG1sOnNwYWNlPSJwcmVzZXJ2ZSI+JiN4YTs8ZyBpZD0iY29sb3JfMjBfIj4mI3hhOwk8Zz4mI3hhOwkJPHBhdGggZmlsbD0iIzg5OENDNSIgZD0iTTM2LDE4YzAtMC41NTMtMC40NDctMS0xLTFIMTBjLTAuNTUyLDAtMSwwLjQ0Ny0xLDFMNSw0M2MwLDAuNTUzLDAuNDQ4LDEsMSwxaDMzYzAuNTUzLDAsMS0wLjQ0NywxLTEgICAgTDM2LDE4eiIvPiYjeGE7CTwvZz4mI3hhOzwvZz4mI3hhOzxnIGlkPSJvdXRsaW5lXzE5XyI+JiN4YTsJPGc+JiN4YTsJCTxwYXRoIGZpbGw9IiMzODRENjgiIGQ9Ik0zOS45NzMsNDIuODYxbDAuMDE4LTAuMDAzbC00LTI4bC0wLjAxOCwwLjAwM0MzNS45MDIsMTQuMzc4LDM1LjUwMywxNCwzNSwxNGgtNXYtNCAgICBjMC01LjUyMi00LjQ3Ny0xMC0xMC0xMGMtNS41MjMsMC0xMCw0LjQ3OC0xMCwxMHY0SDVjLTAuNTAzLDAtMC45MDIsMC4zNzgtMC45NzIsMC44NjFMNC4wMSwxNC44NThsLTQsMjhsMC4wMTgsMC4wMDMgICAgQzAuMDIxLDQyLjkwOCwwLDQyLjk1MSwwLDQzYzAsMC41NTMsMC40NDgsMSwxLDFoMzhjMC41NTMsMCwxLTAuNDQ3LDEtMUM0MCw0Mi45NTEsMzkuOTc5LDQyLjkwOCwzOS45NzMsNDIuODYxeiBNMTIsMTAgICAgYzAtNC40MTgsMy41ODItOCw4LThjNC40MTgsMCw4LDMuNTgyLDgsOHY0aC0ydi00YzAtMy4zMTMtMi42ODctNi02LTZzLTYsMi42ODctNiw2djRoLTJWMTB6IE0yNCwxMHY0aC04di00YzAtMi4yMDksMS43OTEtNCw0LTQgICAgUzI0LDcuNzkxLDI0LDEweiBNMi4xNTMsNDJsMy43MTQtMjZoMjguMjY2bDMuNzE1LDI2SDIuMTUzeiBNMTIuMDQyLDMyLjk0N3YtOC4yOTVoLTEuNDd2OC40OWMwLDEuNSwxLjE3LDIuNjcsMi42ODUsMi42N2gxLjA5NSAgICB2LTEuNDcxaC0wLjkxNUMxMi42NTcsMzQuMzQyLDEyLjA0MiwzMy43MjgsMTIuMDQyLDMyLjk0N3ogTTE5LjcwNSwyNy41MzJoLTIuMjV2LTIuODhoLTEuNDd2MTEuMTZoMy43MiAgICBjMS41LDAsMi42Ny0xLjE3LDIuNjctMi42N3YtMi45NEMyMi4zNzUsMjguNzAyLDIxLjIwNSwyNy41MzIsMTkuNzA1LDI3LjUzMnogTTIwLjkwNSwzMi45NDdjMCwwLjc4LTAuNjE1LDEuMzk1LTEuMzk1LDEuMzk1ICAgIGgtMi4wNTV2LTUuMzU0aDIuMDU1YzAuNzgsMCwxLjM5NSwwLjYzLDEuMzk1LDEuMzk2VjMyLjk0N3ogTTI3LjExNywzMC45OTdoLTAuNzY2Yy0wLjU2OSwwLTEuMDQ5LTAuNDc5LTEuMDQ5LTEuMDY0ICAgIGMwLTAuNTcsMC40NzktMS4wNjUsMS4wNDktMS4wNjVoMi44MzZ2LTEuMzM1aC0yLjk1NWMtMS4zMzYsMC0yLjM3LDEuMDIxLTIuMzcsMi4zODVjMCwxLjM4LDEuMDM0LDIuNDE1LDIuMzcsMi40MTVoMC43NjUgICAgYzAuNTg1LDAsMS4wNjUsMC40OTUsMS4wNjUsMS4wOGMwLDAuNTctMC40OCwxLjA2NS0xLjA2NSwxLjA2NWgtMy4xMzV2MS4zMzVoMy4yNTVjMS4zMzUsMCwyLjM4NS0xLjAyMSwyLjM4NS0yLjQgICAgQzI5LjUwMiwzMi4wNDcsMjguNDUyLDMwLjk5NywyNy4xMTcsMzAuOTk3eiBNMzEuNDIyLDM1LjgxMmgxLjg1OXYtMS44NmgtMS44NTlWMzUuODEyeiIvPiYjeGE7CTwvZz4mI3hhOzwvZz4mI3hhOzwvc3ZnPg==" parent="1" vertex="1">
          <mxGeometry x="530" y="290" width="40" height="44" as="geometry" />
        </mxCell>
        <mxCell id="3ne1QswCM8ZiEu4GHsYG-26" style="orthogonalLoop=1;jettySize=auto;html=1;curved=1;sourcePerimeterSpacing=5;targetPerimeterSpacing=5;" parent="1" source="3ne1QswCM8ZiEu4GHsYG-13" target="3ne1QswCM8ZiEu4GHsYG-11" edge="1">
          <mxGeometry relative="1" as="geometry" />
        </mxCell>
        <mxCell id="3ne1QswCM8ZiEu4GHsYG-13" value="Naval&#xa;Transport" style="shape=image;verticalLabelPosition=bottom;verticalAlign=top;aspect=fixed;image=data:image/svg+xml,PHN2ZyB4bWxucz0iaHR0cDovL3d3dy53My5vcmcvMjAwMC9zdmciIHhtbG5zOnhsaW5rPSJodHRwOi8vd3d3LnczLm9yZy8xOTk5L3hsaW5rIiB2ZXJzaW9uPSIxLjEiIGlkPSJMYXllcl8xIiB4PSIwcHgiIHk9IjBweCIgd2lkdGg9IjQ4cHgiIGhlaWdodD0iNDhweCIgdmlld0JveD0iMCAwIDQ4IDQ4IiBlbmFibGUtYmFja2dyb3VuZD0ibmV3IDAgMCA0OCA0OCIgeG1sOnNwYWNlPSJwcmVzZXJ2ZSI+JiN4YTs8ZyBpZD0iY29sb3JfNTVfIj4mI3hhOwk8Zz4mI3hhOwkJPHBhdGggZmlsbD0iI0YxNjM2MiIgZD0iTTQ2LDI4YzAtMC41NTMtMC40NDctMi0xLTJINWMtMC41NTMsMC0xLDAuNDQ3LTEsMWMwLDAuMTAxLDAuMDI5LDAuMTkxLDAuMDU3LDAuMjgzbC0wLjAxNSwwLjAwNGw2LDE4ICAgIGwwLjAxNS0wLjAwNEMxMC4xODEsNDUuNjk0LDEwLjU0OCw0NiwxMSw0NmgyOWMwLjQ1MiwwLDAuODE5LTAuMzA2LDAuOTQzLTAuNzE3bDAuMDE1LDAuMDA0bDUtMTdsLTAuMDE1LTAuMDA0ICAgIEM0NS45NzEsMjguMTkxLDQ2LDI4LjEwMSw0NiwyOHoiLz4mI3hhOwk8L2c+JiN4YTs8L2c+JiN4YTs8ZyBpZD0ib3V0bGluZV81M18iPiYjeGE7CTxnPiYjeGE7CQk8cGF0aCBmaWxsPSIjMzg0RDY4IiBkPSJNMjQsNDBjMC41NTMsMCwxLTAuNDQ3LDEtMVYyOWMwLTAuNTUzLTAuNDQ3LTEtMS0xcy0xLDAuNDQ3LTEsMXYxMEMyMywzOS41NTMsMjMuNDQ3LDQwLDI0LDQweiBNNDYsMjMgICAgYzAtMC41NTMtMC40NDctMS0xLTFIMzQuNjc3TDI2LjkyOSwyLjYyOUwyNi45MjUsMi42M0MyNi43NzcsMi4yNjIsMjYuNDIxLDIsMjYsMmMtMC41NTMsMC0xLDAuNDQ3LTEsMSAgICBjMCwwLjEzMSwwLjAyOCwwLjI1NSwwLjA3NCwwLjM3bC0wLjAwMywwLjAwMWwwLjAwNywwLjAxOGwwLjAwMSwwLjAwMUwzMi41MjMsMjJIMTUuNDc3bDcuNDQ0LTE4LjYxbDAuMDAxLTAuMDAxbDAuMDA3LTAuMDE4ICAgIEwyMi45MjUsMy4zN0MyMi45NzIsMy4yNTUsMjMsMy4xMzEsMjMsM2MwLTAuNTUzLTAuNDQ3LTEtMS0xYy0wLjQyMSwwLTAuNzc3LDAuMjYyLTAuOTI2LDAuNjNsLTAuMDAzLTAuMDAxTDEzLjMyMywyMkgzICAgIGMtMC41NTMsMC0xLDAuNDQ3LTEsMWMwLDAuMTAxLDAuMDI5LDAuMTkxLDAuMDU3LDAuMjgzbC0wLjAxNSwwLjAwNGw2LDIwbDAuMDE1LTAuMDA0QzguMTgxLDQzLjY5NCw4LjU0OCw0NCw5LDQ0aDMwICAgIGMwLjQ1MiwwLDAuODE5LTAuMzA2LDAuOTQzLTAuNzE3bDAuMDE1LDAuMDA0bDYtMjBsLTAuMDE1LTAuMDA0QzQ1Ljk3MSwyMy4xOTEsNDYsMjMuMTAxLDQ2LDIzeiBNMzguMjU2LDQySDkuNzQ0bC01LjQtMThoMzkuMzEzICAgIEwzOC4yNTYsNDJ6IE0zMiw0MGMwLjU1MywwLDEtMC40NDcsMS0xVjI5YzAtMC41NTMtMC40NDctMS0xLTFzLTEsMC40NDctMSwxdjEwQzMxLDM5LjU1MywzMS40NDcsNDAsMzIsNDB6IE0xNiw0MCAgICBjMC41NTMsMCwxLTAuNDQ3LDEtMVYyOWMwLTAuNTUzLTAuNDQ3LTEtMS0xcy0xLDAuNDQ3LTEsMXYxMEMxNSwzOS41NTMsMTUuNDQ3LDQwLDE2LDQweiIvPiYjeGE7CTwvZz4mI3hhOzwvZz4mI3hhOzwvc3ZnPg==" parent="1" vertex="1">
          <mxGeometry x="652.5" y="327.0000000000002" width="48" height="48" as="geometry" />
        </mxCell>
        <mxCell id="3ne1QswCM8ZiEu4GHsYG-29" style="orthogonalLoop=1;jettySize=auto;html=1;curved=1;sourcePerimeterSpacing=5;targetPerimeterSpacing=5;" parent="1" source="3ne1QswCM8ZiEu4GHsYG-14" target="3ne1QswCM8ZiEu4GHsYG-15" edge="1">
          <mxGeometry relative="1" as="geometry" />
        </mxCell>
        <mxCell id="3ne1QswCM8ZiEu4GHsYG-14" value="Land&#xa;Transport" style="shape=image;verticalLabelPosition=bottom;verticalAlign=top;aspect=fixed;image=data:image/svg+xml,PHN2ZyB4bWxucz0iaHR0cDovL3d3dy53My5vcmcvMjAwMC9zdmciIHhtbG5zOnhsaW5rPSJodHRwOi8vd3d3LnczLm9yZy8xOTk5L3hsaW5rIiB2ZXJzaW9uPSIxLjEiIGlkPSJMYXllcl8xIiB4PSIwcHgiIHk9IjBweCIgd2lkdGg9IjQ4cHgiIGhlaWdodD0iNDhweCIgdmlld0JveD0iMCAwIDQ4IDQ4IiBlbmFibGUtYmFja2dyb3VuZD0ibmV3IDAgMCA0OCA0OCIgeG1sOnNwYWNlPSJwcmVzZXJ2ZSI+JiN4YTs8ZyBpZD0iY29sb3JfMzNfIj4mI3hhOwk8Zz4mI3hhOwkJPHBhdGggZmlsbD0iI0YxNjM2MiIgZD0iTTQ1LDIzaC01bC00LTEyYzAtMC41NTMtMC40NDctMS0xLTFoLTFoLTVIN2MtMC41NTMsMC0xLDAuNDQ3LTEsMXYyNGMwLDAuNTUzLDAuNDQ3LDEsMSwxaDI3ICAgIGMwLjE4NiwwLDAuMzUxLTAuMDY0LDAuNS0wLjE1M0MzNC42NDksMzUuOTM2LDM0LjgxNCwzNiwzNSwzNmg4YzAuNTUzLDAsMy0yLjQ0NywzLTN2LTlDNDYsMjMuNDQ3LDQ1LjU1MywyMyw0NSwyM3oiLz4mI3hhOwk8L2c+JiN4YTs8L2c+JiN4YTs8ZyBpZD0ib3V0bGluZV8zM18iPiYjeGE7CTxnPiYjeGE7CQk8cGF0aCBmaWxsPSIjMzg0RDY4IiBkPSJNMjEuMjgxLDMxLjM2MmMtMC4zNzUsMC4zNzMtMC4zNzUsMC45NzgsMCwxLjM1MXMwLjk4MiwwLjM3MywxLjM1NywwbDQuMDczLTQuMDUzICAgIGMwLjM3NC0wLjM3MywwLjM3NC0wLjk3OCwwLTEuMzUxbC00LjA3My00LjA1M2MtMC4zNzUtMC4zNzMtMC45ODItMC4zNzMtMS4zNTcsMHMtMC4zNzUsMC45NzgsMCwxLjM1MUwyMy42ODYsMjdIMTYgICAgYy0xLjY1NiwwLTMtMS4zNDMtMy0zdi00YzAtMC41NTMtMC40NDctMS0xLTFzLTEsMC40NDctMSwxdjRjMCwyLjc2MiwyLjIzOCw1LDUsNWg3LjY1NUwyMS4yODEsMzEuMzYyeiBNNDEsMjYgICAgYzAuNTUzLDAsMS0wLjQ0NywxLTFzLTAuNDQ3LTEtMS0xaC0yYy0wLjU1MywwLTEsMC40NDctMSwxczAuNDQ3LDEsMSwxSDQxeiBNMTMsMzVjLTEuNjU2LDAtMywxLjM0My0zLDNzMS4zNDQsMywzLDNzMy0xLjM0MywzLTMgICAgUzE0LjY1NiwzNSwxMywzNXogTTEzLDM5Yy0wLjU1MywwLTEtMC40NDctMS0xczAuNDQ3LTEsMS0xczEsMC40NDcsMSwxUzEzLjU1MywzOSwxMywzOXogTTI4LDM1SDE4Yy0wLjU1MywwLTEsMC40NDctMSwxICAgIHMwLjQ0NywxLDEsMWgxMGMwLjU1MywwLDEtMC40NDcsMS0xUzI4LjU1MywzNSwyOCwzNXogTTQyLDIwaC0yYy0xLjEwNCwwLTItMC44OTYtMi0ybC0yLTdjMC0yLjIwOS0xLjc5MS00LTQtNEgzICAgIEMyLjQ0Nyw3LDIsNy40NDcsMiw4djI4YzAsMC41NTMsMC40NDcsMSwxLDFoNWMwLjU1MywwLDEtMC40NDcsMS0xcy0wLjQ0Ny0xLTEtMUg0VjloMjhjMS4xMDQsMCwyLDAuODk2LDIsMmwyLDcgICAgYzAsMi4yMDksMS43OTEsNCw0LDRoMmMxLjEwNCwwLDIsMC44OTYsMiwydjljMCwxLjEwNC0wLjg5NiwyLTIsMmgtNGMtMC41NTMsMC0xLDAuNDQ3LTEsMXMwLjQ0NywxLDEsMWg0YzIuMjA5LDAsNC0xLjc5MSw0LTR2LTkgICAgQzQ2LDIxLjc5MSw0NC4yMDksMjAsNDIsMjB6IE0zMiwyMmMxLjEwNCwwLDItMC44OTYsMi0ybC0yLTdjMC0xLjEwNC0wLjg5Ni0yLTItMmgtNGMtMS4xMDQsMC0yLDAuODk2LTIsMnY3YzAsMS4xMDQsMC44OTYsMiwyLDIgICAgSDMyeiBNMjYsMTNoNGwyLDdoLTZWMTN6IE0zMywzNWMtMS42NTYsMC0zLDEuMzQzLTMsM3MxLjM0NCwzLDMsM3MzLTEuMzQzLDMtM1MzNC42NTYsMzUsMzMsMzV6IE0zMywzOWMtMC41NTMsMC0xLTAuNDQ3LTEtMSAgICBzMC40NDctMSwxLTFzMSwwLjQ0NywxLDFTMzMuNTUzLDM5LDMzLDM5eiIvPiYjeGE7CTwvZz4mI3hhOzwvZz4mI3hhOzwvc3ZnPg==" parent="1" vertex="1">
          <mxGeometry x="874.5" y="327.00000000000034" width="48" height="48" as="geometry" />
        </mxCell>
        <mxCell id="3ne1QswCM8ZiEu4GHsYG-30" style="orthogonalLoop=1;jettySize=auto;html=1;curved=1;sourcePerimeterSpacing=5;targetPerimeterSpacing=5;" parent="1" source="3ne1QswCM8ZiEu4GHsYG-15" target="3ne1QswCM8ZiEu4GHsYG-16" edge="1">
          <mxGeometry relative="1" as="geometry" />
        </mxCell>
        <mxCell id="3ne1QswCM8ZiEu4GHsYG-15" value="Delivery" style="shape=image;verticalLabelPosition=bottom;verticalAlign=top;aspect=fixed;image=data:image/svg+xml,PHN2ZyB4bWxucz0iaHR0cDovL3d3dy53My5vcmcvMjAwMC9zdmciIHhtbG5zOnhsaW5rPSJodHRwOi8vd3d3LnczLm9yZy8xOTk5L3hsaW5rIiB2ZXJzaW9uPSIxLjEiIGlkPSJMYXllcl8xIiB4PSIwcHgiIHk9IjBweCIgd2lkdGg9IjQ4cHgiIGhlaWdodD0iNDhweCIgdmlld0JveD0iMCAwIDQ4IDQ4IiBlbmFibGUtYmFja2dyb3VuZD0ibmV3IDAgMCA0OCA0OCIgeG1sOnNwYWNlPSJwcmVzZXJ2ZSI+JiN4YTs8ZyBpZD0iY29sb3JfNTdfIj4mI3hhOwk8Zz4mI3hhOwkJPHBhdGggZmlsbD0iI0ZGREE4RSIgZD0iTTIzLDhjMC41NTIsMCwxLTAuNDQ3LDEtMVYzYzAtMC41NTMtMC40NDgtMS0xLTFzLTEsMC40NDctMSwxdjRDMjIsNy41NTMsMjIuNDQ4LDgsMjMsOHogTTI4Ljc2Miw4LjY5MiAgICBsMi45MzgtMi45MzhjMC40MDYtMC40MDYsMC40MDYtMS4wNjMsMC0xLjQ3Yy0wLjQwNi0wLjQwNS0xLjA2My0wLjQwNS0xLjQ2OSwwbC0yLjkzOCwyLjkzOGMtMC40MDYsMC40MDYtMC40MDYsMS4wNjQsMCwxLjQ3ICAgIFMyOC4zNTYsOS4wOTgsMjguNzYyLDguNjkyeiBNMTcuMjM4LDguNjkyYzAuNDA2LDAuNDA1LDEuMDYzLDAuNDA1LDEuNDY5LDBzMC40MDYtMS4wNjMsMC0xLjQ3bC0yLjkzOC0yLjkzOCAgICBjLTAuNDA2LTAuNDA1LTEuMDY0LTAuNDA1LTEuNDcsMGMtMC40MDUsMC40MDYtMC40MDUsMS4wNjMsMCwxLjQ3TDE3LjIzOCw4LjY5MnogTTQyLDIyaC05LjM4MmwtMy43MjQtNy40NDdsLTAuMDA5LDAuMDA1ICAgIEMyOC43MjEsMTQuMjMsMjguMzkxLDE0LDI4LDE0SDEwYy0wLjU1MiwwLTEsMC40NDctMSwxYzAsMC4xNjEsMC4wNDcsMC4zMDgsMC4xMTUsMC40NDJsLTAuMDA5LDAuMDA1TDExLDE5LjIzNlY0NSAgICBjMCwwLjU1MywwLjQ0OCwxLDEsMWgzMGMwLjU1MiwwLDEtMC40NDcsMS0xVjIzQzQzLDIxLjk0Myw0MiwyMiw0MiwyMnoiLz4mI3hhOwk8L2c+JiN4YTs8L2c+JiN4YTs8ZyBpZD0ib3V0bGluZV81NV8iPiYjeGE7CTxnPiYjeGE7CQk8cGF0aCBmaWxsPSIjMzg0RDY4IiBkPSJNNDYsMTFjMC0wLjU1My0wLjQ0OC0xLTEtMUgzNWMtMC41NTIsMC0xLDAuNDQ3LTEsMXMwLjQ0OCwxLDEsMWg4LjM4MmwtNCw4aC02Ljc2NGwtNC43MjQtOS40NDcgICAgbC0wLjAwOSwwLjAwNUMyNy43MjEsMTAuMjMsMjcuMzkxLDEwLDI3LDEwSDNjLTAuNTUyLDAtMSwwLjQ0Ny0xLDFjMCwwLjE2MSwwLjA0NywwLjMwOCwwLjExNSwwLjQ0MmwtMC4wMDksMC4wMDVMNywyMS4yMzZWNDMgICAgYzAsMC41NTMsMC40NDgsMSwxLDFoMzJjMC41NTIsMCwxLTAuNDQ3LDEtMVYyMS4yMzZsNC44OTUtOS43ODlsLTAuMDA5LTAuMDA1QzQ1Ljk1MywxMS4zMDgsNDYsMTEuMTYxLDQ2LDExeiBNNC42MTgsMTJoMjEuNzY0ICAgIGw0LDhIOC42MThMNC42MTgsMTJ6IE0zMSw0MWMwLDAuNTUzLTAuNDQ4LDEtMSwxSDlWMjJoMjFjMC41NTIsMCwxLDAuNDQ3LDEsMVY0MXogTTM5LDQyaC01Yy0wLjU1MiwwLTEtMC40NDctMS0xVjIzICAgIGMwLTAuNTUzLDAuNDQ4LTEsMS0xaDVWNDJ6Ii8+JiN4YTsJPC9nPiYjeGE7PC9nPiYjeGE7PC9zdmc+" parent="1" vertex="1">
          <mxGeometry x="984.5" y="327.00000000000034" width="48" height="48" as="geometry" />
        </mxCell>
        <mxCell id="3ne1QswCM8ZiEu4GHsYG-16" value="Administration" style="shape=image;verticalLabelPosition=bottom;verticalAlign=top;aspect=fixed;image=data:image/svg+xml,PHN2ZyB4bWxucz0iaHR0cDovL3d3dy53My5vcmcvMjAwMC9zdmciIHhtbG5zOnhsaW5rPSJodHRwOi8vd3d3LnczLm9yZy8xOTk5L3hsaW5rIiB2ZXJzaW9uPSIxLjEiIGlkPSJMYXllcl8xIiB4PSIwcHgiIHk9IjBweCIgd2lkdGg9IjQ4cHgiIGhlaWdodD0iNDhweCIgdmlld0JveD0iMCAwIDQ4IDQ4IiBlbmFibGUtYmFja2dyb3VuZD0ibmV3IDAgMCA0OCA0OCIgeG1sOnNwYWNlPSJwcmVzZXJ2ZSI+JiN4YTs8ZyBpZD0iY29sb3JfNTFfIj4mI3hhOwk8Zz4mI3hhOwkJPHBhdGggZmlsbD0iIzg5OENDNSIgZD0iTTQzLDZoLTV2NGMwLDEuMTA0LTAuODk2LDItMiwyaC0yYy0xLjEwNCwwLTItMC44OTYtMi0yVjZIMTh2NGMwLDEuMTA0LTAuODk2LDItMiwyaC0yICAgIGMtMS4xMDQsMC0yLTAuODk2LTItMlY2SDlDOC40NDcsNiw4LDYuNDQ3LDgsN3YzOGMwLDAuNTUzLDAuNDQ3LDEsMSwxaDM0YzAuNTUzLDAsMS0wLjQ0NywxLTFWN0M0NCw2LjQ0Nyw0My41NTMsNiw0Myw2eiIvPiYjeGE7CTwvZz4mI3hhOzwvZz4mI3hhOzxnIGlkPSJvdXRsaW5lXzQ5XyI+JiN4YTsJPGc+JiN4YTsJCTxwYXRoIGZpbGw9IiMzODRENjgiIGQ9Ik0xNS43MTUsMjguMjg1Yy0wLjM3NS0wLjM3NS0wLjk4Mi0wLjM3NS0xLjM1NywwTDEzLDI5LjY0M2wtMS4zNTctMS4zNTcgICAgYy0wLjM3NS0wLjM3NS0wLjk4Mi0wLjM3NS0xLjM1NywwYy0wLjM3NSwwLjM3NC0wLjM3NSwwLjk4MiwwLDEuMzU3TDExLjY0MywzMWwtMS4zNTcsMS4zNTdjLTAuMzc1LDAuMzc1LTAuMzc1LDAuOTgzLDAsMS4zNTcgICAgYzAuMzc1LDAuMzc1LDAuOTgyLDAuMzc1LDEuMzU3LDBMMTMsMzIuMzU3bDEuMzU3LDEuMzU3YzAuMzc1LDAuMzc1LDAuOTgyLDAuMzc1LDEuMzU3LDBjMC4zNzUtMC4zNzQsMC4zNzUtMC45ODIsMC0xLjM1NyAgICBMMTQuMzU3LDMxbDEuMzU3LTEuMzU3QzE2LjA5LDI5LjI2OCwxNi4wOSwyOC42NTksMTUuNzE1LDI4LjI4NXogTTE1LjcxNSwxOC4yODVjLTAuMzc1LTAuMzc1LTAuOTgyLTAuMzc1LTEuMzU3LDBMMTMsMTkuNjQzICAgIGwtMS4zNTctMS4zNTdjLTAuMzc1LTAuMzc1LTAuOTgyLTAuMzc1LTEuMzU3LDBjLTAuMzc1LDAuMzc0LTAuMzc1LDAuOTgyLDAsMS4zNTdMMTEuNjQzLDIxbC0xLjM1NywxLjM1NyAgICBjLTAuMzc1LDAuMzc1LTAuMzc1LDAuOTgyLDAsMS4zNTdzMC45ODIsMC4zNzUsMS4zNTcsMEwxMywyMi4zNTdsMS4zNTcsMS4zNTdjMC4zNzUsMC4zNzUsMC45ODIsMC4zNzUsMS4zNTcsMCAgICBzMC4zNzUtMC45ODIsMC0xLjM1N0wxNC4zNTcsMjFsMS4zNTctMS4zNTdDMTYuMDksMTkuMjY4LDE2LjA5LDE4LjY1OSwxNS43MTUsMTguMjg1eiBNNDEsNmgtNVY0YzAtMS4xMDQtMC44OTYtMi0yLTJoLTIgICAgYy0xLjEwNCwwLTIsMC44OTYtMiwydjJIMTZWNGMwLTEuMTA0LTAuODk2LTItMi0yaC0yYy0xLjEwNCwwLTIsMC44OTYtMiwydjJINUM0LjQ0Nyw2LDQsNi40NDcsNCw3djM4YzAsMC41NTMsMC40NDcsMSwxLDFoMzYgICAgYzAuNTUzLDAsMS0wLjQ0NywxLTFWN0M0Miw2LjQ0Nyw0MS41NTMsNiw0MSw2eiBNMzIsNWMwLTAuNTUzLDAuNDQ3LTEsMS0xczEsMC40NDcsMSwxdjRjMCwwLjU1My0wLjQ0NywxLTEsMXMtMS0wLjQ0Ny0xLTFWNXogICAgIE0xMiw1YzAtMC41NTMsMC40NDctMSwxLTFzMSwwLjQ0NywxLDF2NGMwLDAuNTUzLTAuNDQ3LDEtMSwxcy0xLTAuNDQ3LTEtMVY1eiBNNDAsNDRINlY4aDR2MmMwLDEuMTA0LDAuODk2LDIsMiwyaDIgICAgYzEuMTA0LDAsMi0wLjg5NiwyLTJWOGgxNHYyYzAsMS4xMDQsMC44OTYsMiwyLDJoMmMxLjEwNCwwLDItMC44OTYsMi0yVjhoNFY0NHogTTM0LDIwSDIwYy0wLjU1MywwLTEsMC40NDctMSwxczAuNDQ3LDEsMSwxaDE0ICAgIGMwLjU1MywwLDEtMC40NDcsMS0xUzM0LjU1MywyMCwzNCwyMHogTTMwLDMwSDIwYy0wLjU1MywwLTEsMC40NDctMSwxczAuNDQ3LDEsMSwxaDEwYzAuNTUzLDAsMS0wLjQ0NywxLTFTMzAuNTUzLDMwLDMwLDMweiIvPiYjeGE7CTwvZz4mI3hhOzwvZz4mI3hhOzwvc3ZnPg==" parent="1" vertex="1">
          <mxGeometry x="1084.5" y="327.0000000000001" width="48" height="48" as="geometry" />
        </mxCell>
        <mxCell id="3ne1QswCM8ZiEu4GHsYG-31" value="Company Goods Delivery Procedure" style="text;html=1;strokeColor=none;fillColor=none;align=center;verticalAlign=middle;whiteSpace=wrap;rounded=0;fontStyle=1;fontSize=20;fontColor=#4D4D4D;" parent="1" vertex="1">
          <mxGeometry x="189.5" y="50" width="790" height="30" as="geometry" />
        </mxCell>
        <mxCell id="3ne1QswCM8ZiEu4GHsYG-32" value="" style="line;strokeWidth=2;html=1;fontSize=20;fontColor=#4D4D4D;" parent="1" vertex="1">
          <mxGeometry x="103.5" y="80" width="960" height="10" as="geometry" />
        </mxCell>
        <mxCell id="LyEzB0Ulu9DqEIwb4BtE-6" value="" style="curved=1;endArrow=classic;html=1;rounded=0;entryX=0;entryY=0.5;entryDx=0;entryDy=0;exitX=1.105;exitY=0.634;exitDx=0;exitDy=0;exitPerimeter=0;" edge="1" parent="1" source="LyEzB0Ulu9DqEIwb4BtE-1" target="3ne1QswCM8ZiEu4GHsYG-9">
          <mxGeometry width="50" height="50" relative="1" as="geometry">
            <mxPoint x="80" y="540" as="sourcePoint" />
            <mxPoint x="147" y="550" as="targetPoint" />
            <Array as="points" />
          </mxGeometry>
        </mxCell>
        <mxCell id="LyEzB0Ulu9DqEIwb4BtE-10" value="" style="group" vertex="1" connectable="0" parent="1">
          <mxGeometry y="580" width="100" height="90" as="geometry" />
        </mxCell>
        <mxCell id="LyEzB0Ulu9DqEIwb4BtE-1" value="" style="sketch=0;html=1;aspect=fixed;strokeColor=none;shadow=0;align=center;verticalAlign=top;fillColor=#3B8DF1;shape=mxgraph.gcp2.a7_power" vertex="1" parent="LyEzB0Ulu9DqEIwb4BtE-10">
          <mxGeometry x="30.46965699208443" width="39.050131926121374" height="39.050131926121374" as="geometry" />
        </mxCell>
        <mxCell id="LyEzB0Ulu9DqEIwb4BtE-7" value="&lt;div&gt;Power On&lt;/div&gt;&lt;div&gt;启动电源&lt;br&gt;&lt;/div&gt;" style="text;html=1;strokeColor=none;fillColor=none;align=center;verticalAlign=middle;whiteSpace=wrap;rounded=0;" vertex="1" parent="LyEzB0Ulu9DqEIwb4BtE-10">
          <mxGeometry x="10" y="39.05" width="80" height="30.95" as="geometry" />
        </mxCell>
        <mxCell id="LyEzB0Ulu9DqEIwb4BtE-19" style="rounded=0;orthogonalLoop=1;jettySize=auto;html=1;" edge="1" parent="1" source="LyEzB0Ulu9DqEIwb4BtE-15">
          <mxGeometry relative="1" as="geometry">
            <mxPoint x="294" y="600" as="targetPoint" />
          </mxGeometry>
        </mxCell>
        <mxCell id="LyEzB0Ulu9DqEIwb4BtE-20" value="替代方案" style="edgeLabel;html=1;align=center;verticalAlign=middle;resizable=0;points=[];" vertex="1" connectable="0" parent="LyEzB0Ulu9DqEIwb4BtE-19">
          <mxGeometry x="-0.2224" y="-1" relative="1" as="geometry">
            <mxPoint as="offset" />
          </mxGeometry>
        </mxCell>
        <mxCell id="LyEzB0Ulu9DqEIwb4BtE-15" value="UEFI&#xa;统一可扩展固件接口" style="shape=image;verticalLabelPosition=bottom;verticalAlign=top;aspect=fixed;image=data:image/svg+xml,PHN2ZyB4bWxucz0iaHR0cDovL3d3dy53My5vcmcvMjAwMC9zdmciIHhtbG5zOnhsaW5rPSJodHRwOi8vd3d3LnczLm9yZy8xOTk5L3hsaW5rIiB2ZXJzaW9uPSIxLjEiIGlkPSJMYXllcl8xIiB4PSIwcHgiIHk9IjBweCIgd2lkdGg9IjQ4cHgiIGhlaWdodD0iNDhweCIgdmlld0JveD0iMCAwIDQ4IDQ4IiBlbmFibGUtYmFja2dyb3VuZD0ibmV3IDAgMCA0OCA0OCIgeG1sOnNwYWNlPSJwcmVzZXJ2ZSI+JiN4YTs8ZyBpZD0iY29sb3JfMjVfIj4mI3hhOwk8Zz4mI3hhOwkJPHBhdGggZmlsbD0iI0YxNjM2MiIgZD0iTTI3LDQxLjAxOWM5Ljk0MSwwLDE4LTguMDU5LDE4LTE4cy04LjA1OS0xOC0xOC0xOHMtMTgsOC4wNTktMTgsMThTMTcuMDU5LDQxLjAxOSwyNyw0MS4wMTl6ICAgICBNMTQuMDQzLDIzLjA5N2MwLjE2My0wLjE2LDAuMjY1LTAuMTg4LDAuMjY1LTAuMTg4bDIuNTIxLTEuMTMybDAuNDU2LTAuMTA1YzAuMjYxLDAsMC41MjEsMC4wOTgsMC43MiwwLjI5M2wwLjg4NiwwLjYgICAgbDMuMDAxLTIuODc4bC0zLjU5Ny0zLjUzNWMtMC4zOTgtMC4zOTEtMC42NDUtMC43NzYtMC4yNDgtMS4xNjdsMS4xOTEtMS4yNDljMC4zMDktMC4zMDQsMC42NjgtMC4zMzMsMS4wNDQtMC4xNjZsMC4wMDMtMC4wMDcgICAgbDUuMzM2LDIuMzg1bDIuNDk4LTIuMzc3YzAuNjk3LTAuNTk1LDIuMjE4LTEuMTcyLDMuNDEsMHMwLjQ1LDIuNDkzLTAuMDgzLDMuMjUzbC0yLjYsMi41NjFsMi4zOTMsNS4xNzVsLTAuMDA2LDAuMDAzICAgIGMwLjE3LDAuMzY4LDAuMTkyLDAuNzczLTAuMTE3LDEuMDc3bC0xLjEwOSwxLjA4NGMtMC4zOTcsMC4zOTEtMC44NzYsMC4yMjYtMS4yNzQtMC4xNjVsLTMuNTk3LTMuNTM1bC0yLjkyNiwyLjgwMmwwLjU2MywwLjgxMyAgICBjMC4xOTksMC4xOTUsMC4yOTgsMC40NTIsMC4yOTgsMC43MDhjMCwwLjE1My0wLjA0NywwLjMwMi0wLjExOSwwLjQ0MmwtMS4wNjksMi41NTJjMCwwLTAuMDI3LDAuMTAxLTAuMTksMC4yNjEgICAgYy0wLjM5OCwwLjM5MS0xLjA0MiwwLjM5MS0xLjQ0LDBjMCwwLTIuMTctMy41MzMtMi4yNDUtMy42MDZjLTAuMTI3LTAuMTI2LTMuOTY2LTIuNDgxLTMuOTY2LTIuNDgxICAgIEMxMy42NDYsMjQuMTIyLDEzLjY0NiwyMy40ODgsMTQuMDQzLDIzLjA5N3ogTTExLDQyLjAxOUg1Yy0wLjM5MSwwLTAuNzIxLDAuMjMtMC44ODUsMC41NThsLTAuMDA5LTAuMDA1bC0xLDJsMC4wMDksMC4wMDUgICAgQzMuMDQ3LDQ0LjcxMSwzLDQ0Ljg1OCwzLDQ1LjAxOWMwLDAuNTUzLDAuNDQ4LDEsMSwxaDZjMC4zOTEsMCwwLjcyMS0wLjIzLDAuODg1LTAuNTU4bDAuMDA5LDAuMDA1bDEtMmwtMC4wMDktMC4wMDUgICAgQzExLjk1Myw0My4zMjcsMTIsNDMuMTgsMTIsNDMuMDE5QzEyLDQyLjQ2NiwxMS41NTIsNDIuMDE5LDExLDQyLjAxOXogTTIyLDQyLjAxOWgtNmMtMC4zOTEsMC0wLjcyMSwwLjIzLTAuODg1LDAuNTU4ICAgIGwtMC4wMDktMC4wMDVsLTEsMmwwLjAwOSwwLjAwNUMxNC4wNDcsNDQuNzExLDE0LDQ0Ljg1OCwxNCw0NS4wMTljMCwwLjU1MywwLjQ0OCwxLDEsMWg2YzAuMzkxLDAsMC43MjEtMC4yMywwLjg4NS0wLjU1OCAgICBsMC4wMDksMC4wMDVsMS0ybC0wLjAwOS0wLjAwNUMyMi45NTMsNDMuMzI3LDIzLDQzLjE4LDIzLDQzLjAxOUMyMyw0Mi40NjYsMjIuNTUyLDQyLjAxOSwyMiw0Mi4wMTl6IE00NCw0Mi4wMTloLTYgICAgYy0wLjM5MSwwLTAuNzIxLDAuMjMtMC44ODUsMC41NThsLTAuMDA5LTAuMDA1bC0xLDJsMC4wMDksMC4wMDVDMzYuMDQ3LDQ0LjcxMSwzNiw0NC44NTgsMzYsNDUuMDE5YzAsMC41NTMsMC40NDgsMSwxLDFoNiAgICBjMC4zOTEsMCwwLjcyMS0wLjIzLDAuODg1LTAuNTU4bDAuMDA5LDAuMDA1bDEtMmwtMC4wMDktMC4wMDVDNDQuOTUzLDQzLjMyNyw0NSw0My4xOCw0NSw0My4wMTkgICAgQzQ1LDQyLjQ2Niw0NC41NTIsNDIuMDE5LDQ0LDQyLjAxOXogTTMzLDQyLjAxOWgtNmMtMC4zOTEsMC0wLjcyMSwwLjIzLTAuODg1LDAuNTU4bC0wLjAwOS0wLjAwNWwtMSwybDAuMDA5LDAuMDA1ICAgIEMyNS4wNDcsNDQuNzExLDI1LDQ0Ljg1OCwyNSw0NS4wMTljMCwwLjU1MywwLjQ0OCwxLDEsMWg2YzAuMzkxLDAsMC43MjEtMC4yMywwLjg4NS0wLjU1OGwwLjAwOSwwLjAwNWwxLTJsLTAuMDA5LTAuMDA1ICAgIEMzMy45NTMsNDMuMzI3LDM0LDQzLjE4LDM0LDQzLjAxOUMzNCw0Mi40NjYsMzMuNTUyLDQyLjAxOSwzMyw0Mi4wMTl6Ii8+JiN4YTsJPC9nPiYjeGE7PC9nPiYjeGE7PGcgaWQ9Im91dGxpbmVfMjRfIj4mI3hhOwk8Zz4mI3hhOwkJPHBhdGggZmlsbD0iIzM4NEQ2OCIgZD0iTTI0LDEuOTgxYy0xMC41MDIsMC0xOS4wMTYsOC41MTQtMTkuMDE2LDE5LjAxNlMxMy40OTgsNDAuMDEyLDI0LDQwLjAxMnMxOS4wMTYtOC41MTQsMTkuMDE2LTE5LjAxNiAgICBTMzQuNTAyLDEuOTgxLDI0LDEuOTgxeiBNMjQsMzguMDExYy05LjM5NiwwLTE3LjAxNC03LjYxOC0xNy4wMTQtMTcuMDE1UzE0LjYwNCwzLjk4MywyNCwzLjk4M1M0MS4wMTQsMTEuNiw0MS4wMTQsMjAuOTk3ICAgIFMzMy4zOTYsMzguMDExLDI0LDM4LjAxMXogTTMxLjc3OCwxMy4yNDFjLTEuMTcyLTEuMTcyLTMuMDcxLTEuMTcyLTQuMjQzLDBsLTIuMjEyLDIuMjEybC01LjI0NS0yLjM4NGwtMC4wMDMsMC4wMDcgICAgYy0wLjM2OS0wLjE2OC0wLjcyMy0wLjEzOC0xLjAyNiwwLjE2NWwtMS40MTQsMS40MTRjLTAuMzkxLDAuMzkyLTAuMzkxLDEuMDIzLDAsMS40MTRsMy41MzUsMy41MzZsLTIuMzgzLDIuMzgzbC0wLjg3MS0wLjYgICAgYy0wLjE5Ni0wLjE5NS0wLjQ1Mi0wLjI5My0wLjcwOC0wLjI5M2wtMC40NDcsMC4xMDVsLTMuMjA3LDEuNzkyYzAsMC0wLjEsMC4wMjYtMC4yNiwwLjE4OGMtMC4zOTEsMC4zOTEtMC4zOTEsMS4wMjQsMCwxLjQxNSAgICBjMCwwLDQuMDk3LDIuNjg2LDQuMjIyLDIuODExYzAuMDc0LDAuMDczLDIuODU1LDQuMjY3LDIuODU1LDQuMjY3YzAuMzkxLDAuMzkxLDEuMDI0LDAuMzkxLDEuNDE2LDAgICAgYzAuMTYtMC4xNjEsMC4xODgtMC4yNjEsMC4xODgtMC4yNjFsMS43OC0zLjIxMmMwLjA3LTAuMTQxLDAuMTE3LTAuMjg5LDAuMTE3LTAuNDQyYzAtMC4yNTYtMC4wOTgtMC41MTItMC4yOTMtMC43MDcgICAgbC0wLjU1NC0wLjgxM2wyLjM4OS0yLjM5bDMuNTM2LDMuNTM2YzAuMzkxLDAuMzkxLDEuMDIzLDAuMzkxLDEuNDE0LDBsMS40MTUtMS40MTRjMC4zMDMtMC4zMDQsMC4yODItMC43MDksMC4xMTQtMS4wNzcgICAgbDAuMDA2LTAuMDAzbC0yLjM1Mi01LjE3NWwyLjIzMS0yLjIzQzMyLjk1LDE2LjMxMiwzMi45NSwxNC40MTMsMzEuNzc4LDEzLjI0MXogTTE5Ljc1NywxNS4zNjJsMC4xMjUtMC4xODRsMy45ODcsMS43MjkgICAgbC0xLjI4MywxLjI4NEwxOS43NTcsMTUuMzYyeiBNMjkuNzksMjUuMDg1bC0wLjEzMywwLjE3NmwtMi44MjgtMi44MjhsMS4yNzQtMS4yNzRMMjkuNzksMjUuMDg1eiBNMzAuMzY0LDE2LjA2OWwtOS44ODgsOS44ODkgICAgYzAuNzUyLDAuOTk5LDEuMTc4LDEuOTk4LDEuMTc4LDEuOTk4bC0wLjg0OCwxLjE3OWMwLDAtMS45NDQtMi45MzUtMi4wMTMtMy4wMDRjLTAuMTIxLTAuMTIxLTIuOTYtMS45NjktMi45Ni0xLjk2OWwxLjE3OS0wLjg0OCAgICBjMCwwLDEuMDUsMC40NTcsMi4wNTUsMS4yMjRsOS44ODItOS44ODNjMC4zOTEtMC4zOTEsMS4wMjQtMC4zOTEsMS40MTQsMEMzMC43NTQsMTUuMDQ1LDMwLjc1NCwxNS42NzksMzAuMzY0LDE2LjA2OXogTTI0LDUuOTg1ICAgIGMtOC4yOTEsMC0xNS4wMTIsNi43MjEtMTUuMDEyLDE1LjAxMlMxNS43MDksMzYuMDA5LDI0LDM2LjAwOXMxNS4wMTItNi43MjIsMTUuMDEyLTE1LjAxM1MzMi4yOTEsNS45ODUsMjQsNS45ODV6IE0yNCwzNC4wMDcgICAgYy03LjE4NiwwLTEzLjAxMS01LjgyNS0xMy4wMTEtMTMuMDExUzE2LjgxNCw3Ljk4NiwyNCw3Ljk4NnMxMy4wMTEsNS44MjUsMTMuMDExLDEzLjAxMVMzMS4xODYsMzQuMDA3LDI0LDM0LjAwN3oiLz4mI3hhOwk8L2c+JiN4YTs8L2c+JiN4YTs8L3N2Zz4=" vertex="1" parent="1">
          <mxGeometry x="270" y="680" width="48" height="48" as="geometry" />
        </mxCell>
        <mxCell id="LyEzB0Ulu9DqEIwb4BtE-16" style="orthogonalLoop=1;jettySize=auto;html=1;curved=1;sourcePerimeterSpacing=5;targetPerimeterSpacing=5;entryX=0;entryY=0.5;entryDx=0;entryDy=0;exitX=1;exitY=1;exitDx=0;exitDy=0;" edge="1" parent="1" source="3ne1QswCM8ZiEu4GHsYG-9" target="LyEzB0Ulu9DqEIwb4BtE-15">
          <mxGeometry relative="1" as="geometry">
            <mxPoint x="170" y="712" as="sourcePoint" />
            <mxPoint x="237" y="678" as="targetPoint" />
          </mxGeometry>
        </mxCell>
        <mxCell id="LyEzB0Ulu9DqEIwb4BtE-21" value="&lt;font style=&quot;font-size: 11px;&quot;&gt;&lt;font style=&quot;font-size: 9px;&quot;&gt;取决储存程序&lt;/font&gt;&lt;/font&gt;" style="text;html=1;strokeColor=none;fillColor=none;align=center;verticalAlign=middle;whiteSpace=wrap;rounded=0;" vertex="1" parent="1">
          <mxGeometry x="189.5" y="598.05" width="60" height="30" as="geometry" />
        </mxCell>
        <mxCell id="LyEzB0Ulu9DqEIwb4BtE-28" style="rounded=0;orthogonalLoop=1;jettySize=auto;html=1;entryX=0;entryY=0.5;entryDx=0;entryDy=0;fontSize=12;" edge="1" parent="1" source="LyEzB0Ulu9DqEIwb4BtE-22" target="LyEzB0Ulu9DqEIwb4BtE-27">
          <mxGeometry relative="1" as="geometry" />
        </mxCell>
        <mxCell id="LyEzB0Ulu9DqEIwb4BtE-37" style="edgeStyle=orthogonalEdgeStyle;curved=1;rounded=0;orthogonalLoop=1;jettySize=auto;html=1;fontSize=12;entryX=1;entryY=0.5;entryDx=0;entryDy=0;" edge="1" parent="1" source="LyEzB0Ulu9DqEIwb4BtE-22" target="LyEzB0Ulu9DqEIwb4BtE-30">
          <mxGeometry relative="1" as="geometry">
            <mxPoint x="510" y="510" as="targetPoint" />
            <Array as="points">
              <mxPoint x="441" y="444" />
            </Array>
          </mxGeometry>
        </mxCell>
        <mxCell id="LyEzB0Ulu9DqEIwb4BtE-38" value="启动中止，反馈" style="edgeLabel;html=1;align=center;verticalAlign=middle;resizable=0;points=[];fontSize=12;" vertex="1" connectable="0" parent="LyEzB0Ulu9DqEIwb4BtE-37">
          <mxGeometry x="0.2659" y="16" relative="1" as="geometry">
            <mxPoint x="1" as="offset" />
          </mxGeometry>
        </mxCell>
        <mxCell id="LyEzB0Ulu9DqEIwb4BtE-22" value="POST&#xa;初始化硬件，硬件自检" style="shape=image;verticalLabelPosition=bottom;verticalAlign=top;aspect=fixed;image=data:image/svg+xml,PHN2ZyB4bWxucz0iaHR0cDovL3d3dy53My5vcmcvMjAwMC9zdmciIHhtbG5zOnhsaW5rPSJodHRwOi8vd3d3LnczLm9yZy8xOTk5L3hsaW5rIiB2ZXJzaW9uPSIxLjEiIGlkPSJMYXllcl8xIiB4PSIwcHgiIHk9IjBweCIgd2lkdGg9IjQ4cHgiIGhlaWdodD0iNDhweCIgdmlld0JveD0iMCAwIDQ4IDQ4IiBlbmFibGUtYmFja2dyb3VuZD0ibmV3IDAgMCA0OCA0OCIgeG1sOnNwYWNlPSJwcmVzZXJ2ZSI+JiN4YTs8ZyBpZD0iY29sb3JfNTFfIj4mI3hhOwk8Zz4mI3hhOwkJPHBhdGggZmlsbD0iIzg5OENDNSIgZD0iTTQzLDZoLTV2NGMwLDEuMTA0LTAuODk2LDItMiwyaC0yYy0xLjEwNCwwLTItMC44OTYtMi0yVjZIMTh2NGMwLDEuMTA0LTAuODk2LDItMiwyaC0yICAgIGMtMS4xMDQsMC0yLTAuODk2LTItMlY2SDlDOC40NDcsNiw4LDYuNDQ3LDgsN3YzOGMwLDAuNTUzLDAuNDQ3LDEsMSwxaDM0YzAuNTUzLDAsMS0wLjQ0NywxLTFWN0M0NCw2LjQ0Nyw0My41NTMsNiw0Myw2eiIvPiYjeGE7CTwvZz4mI3hhOzwvZz4mI3hhOzxnIGlkPSJvdXRsaW5lXzQ5XyI+JiN4YTsJPGc+JiN4YTsJCTxwYXRoIGZpbGw9IiMzODRENjgiIGQ9Ik0xNS43MTUsMjguMjg1Yy0wLjM3NS0wLjM3NS0wLjk4Mi0wLjM3NS0xLjM1NywwTDEzLDI5LjY0M2wtMS4zNTctMS4zNTcgICAgYy0wLjM3NS0wLjM3NS0wLjk4Mi0wLjM3NS0xLjM1NywwYy0wLjM3NSwwLjM3NC0wLjM3NSwwLjk4MiwwLDEuMzU3TDExLjY0MywzMWwtMS4zNTcsMS4zNTdjLTAuMzc1LDAuMzc1LTAuMzc1LDAuOTgzLDAsMS4zNTcgICAgYzAuMzc1LDAuMzc1LDAuOTgyLDAuMzc1LDEuMzU3LDBMMTMsMzIuMzU3bDEuMzU3LDEuMzU3YzAuMzc1LDAuMzc1LDAuOTgyLDAuMzc1LDEuMzU3LDBjMC4zNzUtMC4zNzQsMC4zNzUtMC45ODIsMC0xLjM1NyAgICBMMTQuMzU3LDMxbDEuMzU3LTEuMzU3QzE2LjA5LDI5LjI2OCwxNi4wOSwyOC42NTksMTUuNzE1LDI4LjI4NXogTTE1LjcxNSwxOC4yODVjLTAuMzc1LTAuMzc1LTAuOTgyLTAuMzc1LTEuMzU3LDBMMTMsMTkuNjQzICAgIGwtMS4zNTctMS4zNTdjLTAuMzc1LTAuMzc1LTAuOTgyLTAuMzc1LTEuMzU3LDBjLTAuMzc1LDAuMzc0LTAuMzc1LDAuOTgyLDAsMS4zNTdMMTEuNjQzLDIxbC0xLjM1NywxLjM1NyAgICBjLTAuMzc1LDAuMzc1LTAuMzc1LDAuOTgyLDAsMS4zNTdzMC45ODIsMC4zNzUsMS4zNTcsMEwxMywyMi4zNTdsMS4zNTcsMS4zNTdjMC4zNzUsMC4zNzUsMC45ODIsMC4zNzUsMS4zNTcsMCAgICBzMC4zNzUtMC45ODIsMC0xLjM1N0wxNC4zNTcsMjFsMS4zNTctMS4zNTdDMTYuMDksMTkuMjY4LDE2LjA5LDE4LjY1OSwxNS43MTUsMTguMjg1eiBNNDEsNmgtNVY0YzAtMS4xMDQtMC44OTYtMi0yLTJoLTIgICAgYy0xLjEwNCwwLTIsMC44OTYtMiwydjJIMTZWNGMwLTEuMTA0LTAuODk2LTItMi0yaC0yYy0xLjEwNCwwLTIsMC44OTYtMiwydjJINUM0LjQ0Nyw2LDQsNi40NDcsNCw3djM4YzAsMC41NTMsMC40NDcsMSwxLDFoMzYgICAgYzAuNTUzLDAsMS0wLjQ0NywxLTFWN0M0Miw2LjQ0Nyw0MS41NTMsNiw0MSw2eiBNMzIsNWMwLTAuNTUzLDAuNDQ3LTEsMS0xczEsMC40NDcsMSwxdjRjMCwwLjU1My0wLjQ0NywxLTEsMXMtMS0wLjQ0Ny0xLTFWNXogICAgIE0xMiw1YzAtMC41NTMsMC40NDctMSwxLTFzMSwwLjQ0NywxLDF2NGMwLDAuNTUzLTAuNDQ3LDEtMSwxcy0xLTAuNDQ3LTEtMVY1eiBNNDAsNDRINlY4aDR2MmMwLDEuMTA0LDAuODk2LDIsMiwyaDIgICAgYzEuMTA0LDAsMi0wLjg5NiwyLTJWOGgxNHYyYzAsMS4xMDQsMC44OTYsMiwyLDJoMmMxLjEwNCwwLDItMC44OTYsMi0yVjhoNFY0NHogTTM0LDIwSDIwYy0wLjU1MywwLTEsMC40NDctMSwxczAuNDQ3LDEsMSwxaDE0ICAgIGMwLjU1MywwLDEtMC40NDcsMS0xUzM0LjU1MywyMCwzNCwyMHogTTMwLDMwSDIwYy0wLjU1MywwLTEsMC40NDctMSwxczAuNDQ3LDEsMSwxaDEwYzAuNTUzLDAsMS0wLjQ0NywxLTFTMzAuNTUzLDMwLDMwLDMweiIvPiYjeGE7CTwvZz4mI3hhOzwvZz4mI3hhOzwvc3ZnPg==;fontSize=12;" vertex="1" parent="1">
          <mxGeometry x="416.5" y="610" width="48" height="48" as="geometry" />
        </mxCell>
        <mxCell id="LyEzB0Ulu9DqEIwb4BtE-24" style="orthogonalLoop=1;jettySize=auto;html=1;curved=1;sourcePerimeterSpacing=5;targetPerimeterSpacing=5;exitX=1;exitY=0.5;exitDx=0;exitDy=0;entryX=0;entryY=0.75;entryDx=0;entryDy=0;" edge="1" parent="1" source="LyEzB0Ulu9DqEIwb4BtE-15" target="LyEzB0Ulu9DqEIwb4BtE-22">
          <mxGeometry relative="1" as="geometry">
            <mxPoint x="350" y="685" as="sourcePoint" />
            <mxPoint x="509" y="820" as="targetPoint" />
          </mxGeometry>
        </mxCell>
        <mxCell id="LyEzB0Ulu9DqEIwb4BtE-40" style="edgeStyle=orthogonalEdgeStyle;curved=1;rounded=0;orthogonalLoop=1;jettySize=auto;html=1;entryX=0;entryY=0.5;entryDx=0;entryDy=0;fontSize=12;exitX=0.5;exitY=0;exitDx=0;exitDy=0;" edge="1" parent="1" source="LyEzB0Ulu9DqEIwb4BtE-27" target="LyEzB0Ulu9DqEIwb4BtE-39">
          <mxGeometry relative="1" as="geometry" />
        </mxCell>
        <mxCell id="LyEzB0Ulu9DqEIwb4BtE-27" value="Boot Sequence&#xa;系统固件搜索可启动设备，&#xa;加载启动顺序&#xa;" style="shape=image;verticalLabelPosition=bottom;verticalAlign=top;aspect=fixed;image=data:image/svg+xml,PHN2ZyB4bWxucz0iaHR0cDovL3d3dy53My5vcmcvMjAwMC9zdmciIHhtbG5zOnhsaW5rPSJodHRwOi8vd3d3LnczLm9yZy8xOTk5L3hsaW5rIiB2ZXJzaW9uPSIxLjEiIGlkPSJMYXllcl8xIiB4PSIwcHgiIHk9IjBweCIgd2lkdGg9IjQ4cHgiIGhlaWdodD0iNDhweCIgdmlld0JveD0iMCAwIDQ4IDQ4IiBlbmFibGUtYmFja2dyb3VuZD0ibmV3IDAgMCA0OCA0OCIgeG1sOnNwYWNlPSJwcmVzZXJ2ZSI+JiN4YTs8ZyBpZD0iY29sb3JfNTFfIj4mI3hhOwk8Zz4mI3hhOwkJPHBhdGggZmlsbD0iIzg5OENDNSIgZD0iTTQzLDZoLTV2NGMwLDEuMTA0LTAuODk2LDItMiwyaC0yYy0xLjEwNCwwLTItMC44OTYtMi0yVjZIMTh2NGMwLDEuMTA0LTAuODk2LDItMiwyaC0yICAgIGMtMS4xMDQsMC0yLTAuODk2LTItMlY2SDlDOC40NDcsNiw4LDYuNDQ3LDgsN3YzOGMwLDAuNTUzLDAuNDQ3LDEsMSwxaDM0YzAuNTUzLDAsMS0wLjQ0NywxLTFWN0M0NCw2LjQ0Nyw0My41NTMsNiw0Myw2eiIvPiYjeGE7CTwvZz4mI3hhOzwvZz4mI3hhOzxnIGlkPSJvdXRsaW5lXzQ5XyI+JiN4YTsJPGc+JiN4YTsJCTxwYXRoIGZpbGw9IiMzODRENjgiIGQ9Ik0xNS43MTUsMjguMjg1Yy0wLjM3NS0wLjM3NS0wLjk4Mi0wLjM3NS0xLjM1NywwTDEzLDI5LjY0M2wtMS4zNTctMS4zNTcgICAgYy0wLjM3NS0wLjM3NS0wLjk4Mi0wLjM3NS0xLjM1NywwYy0wLjM3NSwwLjM3NC0wLjM3NSwwLjk4MiwwLDEuMzU3TDExLjY0MywzMWwtMS4zNTcsMS4zNTdjLTAuMzc1LDAuMzc1LTAuMzc1LDAuOTgzLDAsMS4zNTcgICAgYzAuMzc1LDAuMzc1LDAuOTgyLDAuMzc1LDEuMzU3LDBMMTMsMzIuMzU3bDEuMzU3LDEuMzU3YzAuMzc1LDAuMzc1LDAuOTgyLDAuMzc1LDEuMzU3LDBjMC4zNzUtMC4zNzQsMC4zNzUtMC45ODIsMC0xLjM1NyAgICBMMTQuMzU3LDMxbDEuMzU3LTEuMzU3QzE2LjA5LDI5LjI2OCwxNi4wOSwyOC42NTksMTUuNzE1LDI4LjI4NXogTTE1LjcxNSwxOC4yODVjLTAuMzc1LTAuMzc1LTAuOTgyLTAuMzc1LTEuMzU3LDBMMTMsMTkuNjQzICAgIGwtMS4zNTctMS4zNTdjLTAuMzc1LTAuMzc1LTAuOTgyLTAuMzc1LTEuMzU3LDBjLTAuMzc1LDAuMzc0LTAuMzc1LDAuOTgyLDAsMS4zNTdMMTEuNjQzLDIxbC0xLjM1NywxLjM1NyAgICBjLTAuMzc1LDAuMzc1LTAuMzc1LDAuOTgyLDAsMS4zNTdzMC45ODIsMC4zNzUsMS4zNTcsMEwxMywyMi4zNTdsMS4zNTcsMS4zNTdjMC4zNzUsMC4zNzUsMC45ODIsMC4zNzUsMS4zNTcsMCAgICBzMC4zNzUtMC45ODIsMC0xLjM1N0wxNC4zNTcsMjFsMS4zNTctMS4zNTdDMTYuMDksMTkuMjY4LDE2LjA5LDE4LjY1OSwxNS43MTUsMTguMjg1eiBNNDEsNmgtNVY0YzAtMS4xMDQtMC44OTYtMi0yLTJoLTIgICAgYy0xLjEwNCwwLTIsMC44OTYtMiwydjJIMTZWNGMwLTEuMTA0LTAuODk2LTItMi0yaC0yYy0xLjEwNCwwLTIsMC44OTYtMiwydjJINUM0LjQ0Nyw2LDQsNi40NDcsNCw3djM4YzAsMC41NTMsMC40NDcsMSwxLDFoMzYgICAgYzAuNTUzLDAsMS0wLjQ0NywxLTFWN0M0Miw2LjQ0Nyw0MS41NTMsNiw0MSw2eiBNMzIsNWMwLTAuNTUzLDAuNDQ3LTEsMS0xczEsMC40NDcsMSwxdjRjMCwwLjU1My0wLjQ0NywxLTEsMXMtMS0wLjQ0Ny0xLTFWNXogICAgIE0xMiw1YzAtMC41NTMsMC40NDctMSwxLTFzMSwwLjQ0NywxLDF2NGMwLDAuNTUzLTAuNDQ3LDEtMSwxcy0xLTAuNDQ3LTEtMVY1eiBNNDAsNDRINlY4aDR2MmMwLDEuMTA0LDAuODk2LDIsMiwyaDIgICAgYzEuMTA0LDAsMi0wLjg5NiwyLTJWOGgxNHYyYzAsMS4xMDQsMC44OTYsMiwyLDJoMmMxLjEwNCwwLDItMC44OTYsMi0yVjhoNFY0NHogTTM0LDIwSDIwYy0wLjU1MywwLTEsMC40NDctMSwxczAuNDQ3LDEsMSwxaDE0ICAgIGMwLjU1MywwLDEtMC40NDcsMS0xUzM0LjU1MywyMCwzNCwyMHogTTMwLDMwSDIwYy0wLjU1MywwLTEsMC40NDctMSwxczAuNDQ3LDEsMSwxaDEwYzAuNTUzLDAsMS0wLjQ0NywxLTFTMzAuNTUzLDMwLDMwLDMweiIvPiYjeGE7CTwvZz4mI3hhOzwvZz4mI3hhOzwvc3ZnPg==;fontSize=12;" vertex="1" parent="1">
          <mxGeometry x="570" y="608" width="50" height="50" as="geometry" />
        </mxCell>
        <mxCell id="LyEzB0Ulu9DqEIwb4BtE-29" value="BIOS&#xa;基本輸出輸入系統" style="shape=image;verticalLabelPosition=bottom;verticalAlign=top;aspect=fixed;image=data:image/svg+xml,PHN2ZyB4bWxucz0iaHR0cDovL3d3dy53My5vcmcvMjAwMC9zdmciIHhtbG5zOnhsaW5rPSJodHRwOi8vd3d3LnczLm9yZy8xOTk5L3hsaW5rIiB2ZXJzaW9uPSIxLjEiIGlkPSJMYXllcl8xIiB4PSIwcHgiIHk9IjBweCIgd2lkdGg9IjQ4cHgiIGhlaWdodD0iNDhweCIgdmlld0JveD0iMCAwIDQ4IDQ4IiBlbmFibGUtYmFja2dyb3VuZD0ibmV3IDAgMCA0OCA0OCIgeG1sOnNwYWNlPSJwcmVzZXJ2ZSI+JiN4YTs8ZyBpZD0iY29sb3IiPiYjeGE7CTxnPiYjeGE7CQk8cGF0aCBmaWxsPSIjODk4Q0M1IiBkPSJNNDMuMjUsMTVoLTM2Yy0wLjU1MywwLTEsMC40NDctMSwxdjI2YzAsMC41NTMsMC40NDcsMSwxLDFoMzZjMC41NTMsMCwxLTAuNDQ3LDEtMVYxNiAgICBDNDQuMjUsMTUuNDQ3LDQzLjgwMywxNSw0My4yNSwxNXoiLz4mI3hhOwk8L2c+JiN4YTs8L2c+JiN4YTs8ZyBpZD0ib3V0bGluZSI+JiN4YTsJPGc+JiN4YTsJCTxwYXRoIGZpbGw9IiMzODRENjgiIGQ9Ik00MS4yNSwyMWMtMC41NTMsMC0xLDAuNDQ3LTEsMXYxN2gtMzZWMTNoOGMwLjU1MiwwLDEtMC40NDgsMS0xYzAtMC41NTMtMC40NDgtMS0xLTFoLTkgICAgYy0wLjU1MywwLTEsMC40NDctMSwxdjI4YzAsMC41NTMsMC40NDcsMSwxLDFoMzhjMC41NTIsMCwxLTAuNDQ3LDEtMVYyMkM0Mi4yNSwyMS40NDcsNDEuODAyLDIxLDQxLjI1LDIxeiBNNDUuOTQzLDExLjI3OCAgICBsLTUuOTExLTUuOTkzYy0wLjQwNy0wLjM4MS0xLjA2OS0wLjM4MS0xLjQ3OCwwYy0wLjQwOCwwLjM4Mi0wLjQwOCwxLDAsMS4zODFMNDIuNzgyLDExSDI0LjI1Yy03LjczMiwwLTE0LDYuMjY4LTE0LDE0djQgICAgYzAsMC41NTMsMC40NDcsMSwxLDFzMS0wLjQ0NywxLTF2LTRjMC02LjYyNyw1LjM3Mi0xMiwxMi0xMmgxOC40ODJsLTQuMTc4LDQuMzMzYy0wLjQwOCwwLjM4Mi0wLjQwOCwxLDAsMS4zODIgICAgYzAuNDA4LDAuMzgxLDEuMDcsMC4zODEsMS40NzgsMGw1LjkxMS02LjA1NkM0Ni4zNTIsMTIuMjc3LDQ2LjM1MiwxMS42NTksNDUuOTQzLDExLjI3OHoiLz4mI3hhOwk8L2c+JiN4YTs8L2c+JiN4YTs8L3N2Zz4=;fontSize=12;" vertex="1" parent="1">
          <mxGeometry x="270" y="510" width="48" height="48" as="geometry" />
        </mxCell>
        <mxCell id="LyEzB0Ulu9DqEIwb4BtE-31" style="edgeStyle=none;rounded=0;orthogonalLoop=1;jettySize=auto;html=1;entryX=0.526;entryY=-0.077;entryDx=0;entryDy=0;entryPerimeter=0;fontSize=12;" edge="1" parent="1" source="LyEzB0Ulu9DqEIwb4BtE-30" target="LyEzB0Ulu9DqEIwb4BtE-1">
          <mxGeometry relative="1" as="geometry" />
        </mxCell>
        <mxCell id="LyEzB0Ulu9DqEIwb4BtE-30" value="" style="shape=image;verticalLabelPosition=bottom;verticalAlign=top;aspect=fixed;image=data:image/svg+xml,PHN2ZyB4bWxucz0iaHR0cDovL3d3dy53My5vcmcvMjAwMC9zdmciIHhtbG5zOnhsaW5rPSJodHRwOi8vd3d3LnczLm9yZy8xOTk5L3hsaW5rIiB2ZXJzaW9uPSIxLjEiIGlkPSJMYXllcl8xIiB4PSIwcHgiIHk9IjBweCIgd2lkdGg9IjQ4cHgiIGhlaWdodD0iNDhweCIgdmlld0JveD0iMCAwIDQ4IDQ4IiBlbmFibGUtYmFja2dyb3VuZD0ibmV3IDAgMCA0OCA0OCIgeG1sOnNwYWNlPSJwcmVzZXJ2ZSI+JiN4YTs8ZyBpZD0iY29sb3JfMTZfIj4mI3hhOwk8Zz4mI3hhOwkJPHBhdGggZmlsbD0iI0ZGREE4RSIgZD0iTTE2LjAzNCw2LjEwOUMxNi4wNTcsNi4yMzcsMTYuMDgyLDYuMjcxLDE2LjAzNCw2LjEwOUwxNi4wMzQsNi4xMDl6IE0zNy45NjYsNi4xMDkgICAgQzM3LjkxOCw2LjI3MSwzNy45NDMsNi4yMzcsMzcuOTY2LDYuMTA5TDM3Ljk2Niw2LjEwOXogTTM3LDVIMTdjLTEuMDI2LDAtMS4wMTksMC43ODYtMC45NjgsMS4wOTYgICAgQzE2LjI3Miw2LjgxNywxNy45MDgsMTEuNzI4LDE4LDEydjEwYzAsNC42MDMsNC40NDQsOCw5LDhzOS0zLjM5Nyw5LThWMTJsMS45NjgtNS45MDRDMzguMDE5LDUuNzg2LDM4LjAyNiw1LDM3LDV6IE0zNy45NjgsNi4wOTYgICAgYy0wLjAwMSwwLjAwNS0wLjAwMSwwLjAwOS0wLjAwMiwwLjAxNEMzNy45NzUsNi4wNzksMzcuOTg1LDYuMDQ1LDM4LDZMMzcuOTY4LDYuMDk2eiBNMTYuMDM0LDYuMTA5ICAgIGMtMC4wMDEtMC4wMDQtMC4wMDEtMC4wMDktMC4wMDItMC4wMTNDMTYuMDEzLDYuMDM5LDE2LDYsMTYsNkMxNi4wMTUsNi4wNDUsMTYuMDI1LDYuMDc5LDE2LjAzNCw2LjEwOXoiLz4mI3hhOwk8L2c+JiN4YTs8L2c+JiN4YTs8ZyBpZD0ib3V0bGluZV8zMV8iPiYjeGE7CTxnPiYjeGE7CQk8cGF0aCBmaWxsLXJ1bGU9ImV2ZW5vZGQiIGNsaXAtcnVsZT0iZXZlbm9kZCIgZmlsbD0iIzM4NEQ2OCIgZD0iTTEyLjEwMywzLjQ3MWwtMC4wNTItMC4xNTVsMC4wMDUtMC4wMDIgICAgQzEyLjA4LDMuMzg5LDEyLjA5NCwzLjQzNiwxMi4xMDMsMy40NzFsMS45NDgsNS44NDVsMC4wMDUtMC4wMDJjMC4wODUsMC4yNTUsMC4yNzIsMC40NTQsMC41MDksMC41NzIgICAgQzE0LjIwMywxMC44NTYsMTQsMTEuOTAzLDE0LDEzdjdjMCw0Ljk3MSw1LjAyOSw5LDEwLDlzMTAtNC4wMjksMTAtOXYtN2MwLTEuMDU0LTAuMTg5LTIuMDYyLTAuNTI0LTNINDFjMC41NTMsMCwxLTAuNDQ3LDEtMSAgICBzLTAuNDQ3LTEtMS0xaC02LjYxM2wxLjUxMS00LjUyOWMwLjAwOS0wLjAzNiwwLjAyMi0wLjA4MywwLjA0Ny0wLjE1NmwwLjAwNSwwLjAwMmwtMC4wNTIsMC4xNTRDMzUuNzk3LDMuODc2LDM2LjU3MywyLDM1LDJIMTMgICAgQzExLjQyNiwyLDEyLjIwMiwzLjg3NSwxMi4xMDMsMy40NzF6IE0zMiwyMGMwLDMuODY2LTQuMTM0LDctOCw3cy04LTMuMTM0LTgtN3YtN2MwLTEuMDc3LDAuMjU0LTIuMDkxLDAuNjktM2gxNC42MTggICAgQzMxLjc0NiwxMC45MDksMzIsMTEuOTIzLDMyLDEzVjIweiBNMzMuNjEzLDRsLTEuMzM0LDRIMTUuNzIxbC0xLjMzNC00SDMzLjYxM3ogTTM2LDMzSDEyQzYuNDc3LDMzLDIsMzcuNDc4LDIsNDN2MiAgICBjMCwwLjU1MywwLjQ0NywxLDEsMXMxLTAuNDQ3LDEtMXYtMmMwLTQuNDE4LDMuNTgyLTgsOC04aDI0YzQuNDE4LDAsOCwzLjU4Miw4LDh2MmMwLDAuNTUzLDAuNDQ3LDEsMSwxczEtMC40NDcsMS0xdi0yICAgIEM0NiwzNy40NzgsNDEuNTIzLDMzLDM2LDMzeiBNMjQsMjFjMC41NTMsMCwxLTAuNDQ3LDEtMXYtNGMwLTAuNTUzLTAuNDQ3LTEtMS0xcy0xLDAuNDQ3LTEsMXY0QzIzLDIwLjU1MywyMy40NDcsMjEsMjQsMjF6ICAgICBNMjgsMTNjLTAuNTUzLDAtMSwwLjQ0Ny0xLDFzMC40NDcsMSwxLDFzMS0wLjQ0NywxLTFTMjguNTUzLDEzLDI4LDEzeiBNMjAsMTVjMC41NTMsMCwxLTAuNDQ3LDEtMXMtMC40NDctMS0xLTFzLTEsMC40NDctMSwxICAgIFMxOS40NDcsMTUsMjAsMTV6IE0yOCwyMWMtMC4yODUsMC0wLjUzOSwwLjEyMy0wLjcyMiwwLjMxNEMyNi41NDksMjIuMDM3LDI1LjA5NiwyMywyNCwyM2MtMS4xMDQsMC0yLjU3My0xLjAxLTMuMjk3LTEuNzM0ICAgIGMwLDAtMC4xNzgtMC4yNjYtMC43MDMtMC4yNjZjLTAuNTUzLDAtMSwwLjQ0Ny0xLDFjMCwwLjMxNiwwLjE1NiwwLjU4NywwLjM4NiwwLjc3QzIwLjQ4OCwyMy44MzMsMjIuMzg5LDI1LDI0LDI1ICAgIGMxLjY1NiwwLDMuNjI1LTEuMjAzLDQuNzExLTIuMjg5bC0wLjAwNC0wLjAwNEMyOC44ODksMjIuNTI2LDI5LDIyLjI3NiwyOSwyMkMyOSwyMS40NDcsMjguNTUzLDIxLDI4LDIxeiIvPiYjeGE7CTwvZz4mI3hhOzwvZz4mI3hhOzwvc3ZnPg==;fontSize=12;" vertex="1" parent="1">
          <mxGeometry x="10" y="420" width="48" height="48" as="geometry" />
        </mxCell>
        <mxCell id="LyEzB0Ulu9DqEIwb4BtE-39" value="从 MBR 主引导记录 读取Boot Loader" style="shape=image;verticalLabelPosition=bottom;verticalAlign=top;aspect=fixed;image=data:image/svg+xml,PHN2ZyB4bWxucz0iaHR0cDovL3d3dy53My5vcmcvMjAwMC9zdmciIHhtbG5zOnhsaW5rPSJodHRwOi8vd3d3LnczLm9yZy8xOTk5L3hsaW5rIiB2ZXJzaW9uPSIxLjEiIGlkPSJMYXllcl8xIiB4PSIwcHgiIHk9IjBweCIgd2lkdGg9IjQ4cHgiIGhlaWdodD0iNDhweCIgdmlld0JveD0iMCAwIDQ4IDQ4IiBlbmFibGUtYmFja2dyb3VuZD0ibmV3IDAgMCA0OCA0OCIgeG1sOnNwYWNlPSJwcmVzZXJ2ZSI+JiN4YTs8ZyBpZD0iY29sb3JfNDFfIj4mI3hhOwk8Zz4mI3hhOwkJPHBhdGggZmlsbD0iIzg5OENDNSIgZD0iTTQ0LDdIN0M2LjQ0Nyw3LDYsNy40NDcsNiw4djM0YzAsMC41NTMsMC40NDcsMSwxLDFoMzdjMC41NTMsMCwxLTAuNDQ3LDEtMVY4QzQ1LDcuNDQ3LDQ0LjU1Myw3LDQ0LDd6ICAgICBNMzYsMjNoLTR2MTNjMCwwLjU1My0wLjQ0NywxLTEsMUgyMWMtMC41NTMsMC0xLTAuNDQ3LTEtMVYyM2gtNGMtMC41NTMsMC0xLTAuNDQ3LTEtMWMwLTAuMjc2LDAuMTExLTAuNTI2LDAuMjkzLTAuNzA3bDEwLTEwICAgIEMyNS40NzQsMTEuMTEyLDI1LjcyNCwxMSwyNiwxMWMwLjI3NSwwLDAuNTI2LDAuMTEyLDAuNzA3LDAuMjkzbDEwLDEwQzM2Ljg4OSwyMS40NzQsMzcsMjEuNzI0LDM3LDIyQzM3LDIyLjU1MywzNi41NTMsMjMsMzYsMjN6ICAgICIvPiYjeGE7CTwvZz4mI3hhOzwvZz4mI3hhOzxnIGlkPSJvdXRsaW5lXzM5XyI+JiN4YTsJPGc+JiN4YTsJCTxwYXRoIGZpbGw9IiMzODRENjgiIGQ9Ik0xNCwyMGg0djE0YzAsMC41NTMsMC40NDcsMSwxLDFoMTBjMC41NTMsMCwxLTAuNDQ3LDEtMVYyMGg0YzAuNTUzLDAsMS0wLjQ0NywxLTEgICAgYzAtMC4yNzYtMC4xMTEtMC41MjYtMC4yOTMtMC43MDdsLTEwLTEwQzI0LjUyNiw4LjExMiwyNC4yNzUsOCwyNCw4Yy0wLjI3NiwwLTAuNTI2LDAuMTEyLTAuNzA3LDAuMjkzbC0xMCwxMCAgICBDMTMuMTExLDE4LjQ3NCwxMywxOC43MjQsMTMsMTlDMTMsMTkuNTUzLDEzLjQ0NywyMCwxNCwyMHogTTI0LDEwLjQxNEwzMS41ODYsMThIMjh2MTVoLThWMThoLTMuNTg2TDI0LDEwLjQxNHogTTE0LDM5aDIwICAgIGMwLjU1MywwLDEtMC40NDcsMS0xcy0wLjQ0Ny0xLTEtMUgxNGMtMC41NTMsMC0xLDAuNDQ3LTEsMVMxMy40NDcsMzksMTQsMzl6IE00NSw0SDNDMi40NDcsNCwyLDQuNDQ3LDIsNXYzOGMwLDAuNTUzLDAuNDQ3LDEsMSwxICAgIGg0MmMwLjU1MywwLDEtMC40NDcsMS0xVjVDNDYsNC40NDcsNDUuNTUzLDQsNDUsNHogTTQ0LDQySDRWNmg0MFY0MnoiLz4mI3hhOwk8L2c+JiN4YTs8L2c+JiN4YTs8L3N2Zz4=;fontSize=12;" vertex="1" parent="1">
          <mxGeometry x="710" y="532" width="48" height="48" as="geometry" />
        </mxCell>
      </root>
    </mxGraphModel>
  </diagram>
</mxfile>
